<?xml version="1.0" encoding="UTF-8" standalone="yes"?>
<!DOCTYPE svg PUBLIC "-//W3C//DTD SVG 1.0//EN" "http://www.w3.org/TR/2001/REC-SVG-20010904/DTD/svg10.dtd">
<svg font-family="sans-serif" font-size="32.4" height="1536" width="2048" xmlns="http://www.w3.org/2000/svg" xmlns:xlink="http://www.w3.org/1999/xlink">
	<defs >
		<linearGradient gradientUnits="userSpaceOnUse" id="tempgrad" x1="-20" x2="20" y1="50%" y2="50%">
			<stop offset="0.00" stop-color="#0000FF" />
			<stop offset="0.40" stop-color="#0000FF" />
			<stop offset="0.50" stop-color="#808080" />
			<stop offset="0.60" stop-color="#FF0000" />
			<stop offset="1.00" stop-color="#FF0000" />
		</linearGradient>
		<pattern height="150" id="snowpat" patternUnits="userSpaceOnUse" viewBox="0 0 200 200" width="150">
			<g id="snowpatg">
				<rect fill="#C8C8C8" height="200" stroke="none" width="200" x="0" y="0" />
				<path d="M 55.46565,56.1454 L 56.47795,55.5146 L 64.12445,57.40925 L 65.75405,64.8616 L 64.7418,65.4924 L 57.34595,63.85035 L 55.46565,56.1454 z M 47.1264,58.03955 L 48.31605,58.07575 L 50.5109,65.6958 L 44.9207,70.844 L 43.7311,70.80785 L 41.44445,63.5329 L 47.1264,58.03955 z M 58.39365,48.31035 L 58.10755,47.2344 L 63.5592,41.50905 L 70.779,43.81315 L 71.0651,44.8891 L 65.9559,50.522 L 58.39365,48.31035 z M 51.684,41.92425 L 52.87365,41.9605 L 58.5556,36.4672 L 56.26895,29.19225 L 55.0793,29.156 L 49.4891,34.3042 L 51.684,41.92425 z M 43.5221,44.4853 L 44.5344,43.8546 L 42.6541,36.14965 L 35.25825,34.5076 L 34.24595,35.1383 L 35.87555,42.59065 L 43.5221,44.4853 z M 29.22105,56.18695 L 28.9349,55.1108 L 34.0441,49.4779 L 41.60635,51.68955 L 41.8925,52.7657 L 36.44085,58.49105 L 29.22105,56.18695 z M 16.20715,59.70065 L 15.921,58.62455 L 26.10575,47.9226 L 18.5435,45.7109 L 5.2765,57.24505 L 0.4204,54.85755 L 7.9998,42.63985 L 0.68825,39.99065 L 0,37.4025 L 0.40055,35.89615 L 2.28085,34.0015 L 9.9274,35.3909 L 9.426,20.99145 L 14.8162,21.3704 L 20.58245,38.04345 L 28.229,39.9381 L 24.7191,25.53865 L 25.7314,24.90795 L 40.02165,28.44465 L 38.14135,20.7397 L 21.59475,14.9294 L 21.21865,9.498 L 35.50895,10.00325 L 34.13005,2.2983 L 36.01035,0.4036 L 37.50525,0 L 40.0738,0.6935 L 42.7029,8.0609 L 54.82795,0.4236 L 57.19735,5.3168 L 45.7507,18.6852 L 47.94555,26.30525 L 58.56635,16.0426 L 59.756,16.0789 L 63.8615,30.31755 L 69.54345,24.82425 L 66.26385,7.4798 L 70.7439,4.43595 L 77.4548,17.15885 L 83.38745,12.1031 L 85.956,12.7966 L 87.0503,13.8993 L 87.73855,16.48745 L 82.72115,22.46545 L 95.3476,29.22765 L 92.3268,33.74185 L 75.1139,30.4372 L 69.6622,36.1626 L 83.7929,40.29945 L 84.079,41.3754 L 73.89425,52.07735 L 81.4565,54.289 L 94.7235,42.75485 L 99.5796,45.14235 L 92.0002,57.36005 L 99.31175,60.00925 L 100,62.5974 L 99.59945,64.10375 L 97.71915,65.9984 L 90.0726,64.609 L 90.574,79.00845 L 85.1838,78.6295 L 79.41755,61.95645 L 71.771,60.0618 L 75.2809,74.46125 L 74.26865,75.09205 L 59.97835,71.55535 L 61.85865,79.2603 L 78.4053,85.0706 L 78.78135,90.502 L 64.4911,89.99675 L 65.86995,97.7017 L 63.98965,99.5964 L 62.49475,100 L 59.92625,99.3065 L 57.2971,91.9391 L 45.1721,99.57635 L 42.80265,94.6832 L 54.24935,81.3148 L 52.05445,73.69475 L 41.43365,83.95735 L 40.244,83.9212 L 36.13855,69.68255 L 30.4566,75.17585 L 33.73615,92.5203 L 29.25615,95.56415 L 22.54525,82.8412 L 16.6126,87.897 L 14.04405,87.2035 L 12.9497,86.1008 L 12.2615,83.5126 L 17.2789,77.53465 L 4.65245,70.77245 L 7.67325,66.2582 L 24.88615,69.56285 L 30.3378,63.8375 L 16.20715,59.70065 z " fill="white" fill-rule="evenodd" stroke="none" />
				<path d="M 55.46565,56.1454 L 56.47795,55.5146 L 64.12445,57.40925 L 65.75405,64.8616 L 64.7418,65.4924 L 57.34595,63.85035 L 55.46565,56.1454 z M 47.1264,58.03955 L 48.31605,58.07575 L 50.5109,65.6958 L 44.9207,70.844 L 43.7311,70.80785 L 41.44445,63.5329 L 47.1264,58.03955 z M 58.39365,48.31035 L 58.10755,47.2344 L 63.5592,41.50905 L 70.779,43.81315 L 71.0651,44.8891 L 65.9559,50.522 L 58.39365,48.31035 z M 51.684,41.92425 L 52.87365,41.9605 L 58.5556,36.4672 L 56.26895,29.19225 L 55.0793,29.156 L 49.4891,34.3042 L 51.684,41.92425 z M 43.5221,44.4853 L 44.5344,43.8546 L 42.6541,36.14965 L 35.25825,34.5076 L 34.24595,35.1383 L 35.87555,42.59065 L 43.5221,44.4853 z M 29.22105,56.18695 L 28.9349,55.1108 L 34.0441,49.4779 L 41.60635,51.68955 L 41.8925,52.7657 L 36.44085,58.49105 L 29.22105,56.18695 z M 16.20715,59.70065 L 15.921,58.62455 L 26.10575,47.9226 L 18.5435,45.7109 L 5.2765,57.24505 L 0.4204,54.85755 L 7.9998,42.63985 L 0.68825,39.99065 L 0,37.4025 L 0.40055,35.89615 L 2.28085,34.0015 L 9.9274,35.3909 L 9.426,20.99145 L 14.8162,21.3704 L 20.58245,38.04345 L 28.229,39.9381 L 24.7191,25.53865 L 25.7314,24.90795 L 40.02165,28.44465 L 38.14135,20.7397 L 21.59475,14.9294 L 21.21865,9.498 L 35.50895,10.00325 L 34.13005,2.2983 L 36.01035,0.4036 L 37.50525,0 L 40.0738,0.6935 L 42.7029,8.0609 L 54.82795,0.4236 L 57.19735,5.3168 L 45.7507,18.6852 L 47.94555,26.30525 L 58.56635,16.0426 L 59.756,16.0789 L 63.8615,30.31755 L 69.54345,24.82425 L 66.26385,7.4798 L 70.7439,4.43595 L 77.4548,17.15885 L 83.38745,12.1031 L 85.956,12.7966 L 87.0503,13.8993 L 87.73855,16.48745 L 82.72115,22.46545 L 95.3476,29.22765 L 92.3268,33.74185 L 75.1139,30.4372 L 69.6622,36.1626 L 83.7929,40.29945 L 84.079,41.3754 L 73.89425,52.07735 L 81.4565,54.289 L 94.7235,42.75485 L 99.5796,45.14235 L 92.0002,57.36005 L 99.31175,60.00925 L 100,62.5974 L 99.59945,64.10375 L 97.71915,65.9984 L 90.0726,64.609 L 90.574,79.00845 L 85.1838,78.6295 L 79.41755,61.95645 L 71.771,60.0618 L 75.2809,74.46125 L 74.26865,75.09205 L 59.97835,71.55535 L 61.85865,79.2603 L 78.4053,85.0706 L 78.78135,90.502 L 64.4911,89.99675 L 65.86995,97.7017 L 63.98965,99.5964 L 62.49475,100 L 59.92625,99.3065 L 57.2971,91.9391 L 45.1721,99.57635 L 42.80265,94.6832 L 54.24935,81.3148 L 52.05445,73.69475 L 41.43365,83.95735 L 40.244,83.9212 L 36.13855,69.68255 L 30.4566,75.17585 L 33.73615,92.5203 L 29.25615,95.56415 L 22.54525,82.8412 L 16.6126,87.897 L 14.04405,87.2035 L 12.9497,86.1008 L 12.2615,83.5126 L 17.2789,77.53465 L 4.65245,70.77245 L 7.67325,66.2582 L 24.88615,69.56285 L 30.3378,63.8375 L 16.20715,59.70065 z " fill="white" fill-rule="evenodd" stroke="none" transform="translate(100,90) rotate(15)" />
			</g>
		</pattern>
		<linearGradient id="watergrad0" x1="50%" x2="50%" y1="0%" y2="100%">
			<stop offset="0" stop-color="#2EC2F2" stop-opacity="0.5746" />
			<stop offset="0.1" stop-color="#2EC2F2" stop-opacity="0.9555" />
			<stop offset="0.2" stop-color="#2EC2F2" stop-opacity="0.9993" />
			<stop offset="0.3" stop-color="#2EC2F2" stop-opacity="0.9996" />
			<stop offset="0.4" stop-color="#2EC2F2" stop-opacity="1.0000" />
			<stop offset="0.5" stop-color="#2EC2F2" stop-opacity="1.0000" />
			<stop offset="0.6" stop-color="#2EC2F2" stop-opacity="1.0000" />
			<stop offset="0.7" stop-color="#2EC2F2" stop-opacity="1.0000" />
			<stop offset="0.8" stop-color="#2EC2F2" stop-opacity="1.0000" />
		</linearGradient>
		<linearGradient id="watergrad1" x1="50%" x2="50%" y1="0%" y2="100%">
			<stop offset="0" stop-color="#2EC2F2" stop-opacity="0.3711" />
			<stop offset="0.1" stop-color="#2EC2F2" stop-opacity="0.8133" />
			<stop offset="0.2" stop-color="#2EC2F2" stop-opacity="0.9812" />
			<stop offset="0.3" stop-color="#2EC2F2" stop-opacity="0.9906" />
			<stop offset="0.4" stop-color="#2EC2F2" stop-opacity="1.0000" />
			<stop offset="0.5" stop-color="#2EC2F2" stop-opacity="1.0000" />
			<stop offset="0.6" stop-color="#2EC2F2" stop-opacity="1.0000" />
			<stop offset="0.7" stop-color="#2EC2F2" stop-opacity="1.0000" />
			<stop offset="0.8" stop-color="#2EC2F2" stop-opacity="1.0000" />
		</linearGradient>
		<linearGradient id="watergrad2" x1="50%" x2="50%" y1="0%" y2="100%">
			<stop offset="0" stop-color="#2EC2F2" stop-opacity="0.2251" />
			<stop offset="0.1" stop-color="#2EC2F2" stop-opacity="0.6431" />
			<stop offset="0.2" stop-color="#2EC2F2" stop-opacity="0.9310" />
			<stop offset="0.3" stop-color="#2EC2F2" stop-opacity="0.9655" />
			<stop offset="0.4" stop-color="#2EC2F2" stop-opacity="1.0000" />
			<stop offset="0.5" stop-color="#2EC2F2" stop-opacity="1.0000" />
			<stop offset="0.6" stop-color="#2EC2F2" stop-opacity="1.0000" />
			<stop offset="0.7" stop-color="#2EC2F2" stop-opacity="1.0000" />
			<stop offset="0.8" stop-color="#2EC2F2" stop-opacity="1.0000" />
		</linearGradient>
		<linearGradient id="watergrad3" x1="50%" x2="50%" y1="0%" y2="100%">
			<stop offset="0" stop-color="#2EC2F2" stop-opacity="0.1969" />
			<stop offset="0.1" stop-color="#2EC2F2" stop-opacity="0.5457" />
			<stop offset="0.2" stop-color="#2EC2F2" stop-opacity="0.8876" />
			<stop offset="0.3" stop-color="#2EC2F2" stop-opacity="0.9438" />
			<stop offset="0.4" stop-color="#2EC2F2" stop-opacity="1.0000" />
			<stop offset="0.5" stop-color="#2EC2F2" stop-opacity="1.0000" />
			<stop offset="0.6" stop-color="#2EC2F2" stop-opacity="1.0000" />
			<stop offset="0.7" stop-color="#2EC2F2" stop-opacity="1.0000" />
			<stop offset="0.8" stop-color="#2EC2F2" stop-opacity="1.0000" />
		</linearGradient>
		<linearGradient id="watergrad4" x1="50%" x2="50%" y1="0%" y2="100%">
			<stop offset="0" stop-color="#2EC2F2" stop-opacity="0.6019" />
			<stop offset="0.1" stop-color="#2EC2F2" stop-opacity="0.7409" />
			<stop offset="0.2" stop-color="#2EC2F2" stop-opacity="0.9583" />
			<stop offset="0.3" stop-color="#2EC2F2" stop-opacity="0.9792" />
			<stop offset="0.4" stop-color="#2EC2F2" stop-opacity="1.0000" />
			<stop offset="0.5" stop-color="#2EC2F2" stop-opacity="1.0000" />
			<stop offset="0.6" stop-color="#2EC2F2" stop-opacity="1.0000" />
			<stop offset="0.7" stop-color="#2EC2F2" stop-opacity="1.0000" />
			<stop offset="0.8" stop-color="#2EC2F2" stop-opacity="1.0000" />
		</linearGradient>
		<linearGradient id="watergrad5" x1="50%" x2="50%" y1="0%" y2="100%">
			<stop offset="0" stop-color="#2EC2F2" stop-opacity="1.0000" />
			<stop offset="0.1" stop-color="#2EC2F2" stop-opacity="1.0000" />
			<stop offset="0.2" stop-color="#2EC2F2" stop-opacity="1.0000" />
			<stop offset="0.3" stop-color="#2EC2F2" stop-opacity="1.0000" />
			<stop offset="0.4" stop-color="#2EC2F2" stop-opacity="1.0000" />
			<stop offset="0.5" stop-color="#2EC2F2" stop-opacity="1.0000" />
			<stop offset="0.6" stop-color="#2EC2F2" stop-opacity="1.0000" />
			<stop offset="0.7" stop-color="#2EC2F2" stop-opacity="1.0000" />
			<stop offset="0.8" stop-color="#2EC2F2" stop-opacity="1.0000" />
		</linearGradient>
		<linearGradient id="watergrad6" x1="50%" x2="50%" y1="0%" y2="100%">
			<stop offset="0" stop-color="#2EC2F2" stop-opacity="1.0000" />
			<stop offset="0.1" stop-color="#2EC2F2" stop-opacity="1.0000" />
			<stop offset="0.2" stop-color="#2EC2F2" stop-opacity="1.0000" />
			<stop offset="0.3" stop-color="#2EC2F2" stop-opacity="1.0000" />
			<stop offset="0.4" stop-color="#2EC2F2" stop-opacity="1.0000" />
			<stop offset="0.5" stop-color="#2EC2F2" stop-opacity="1.0000" />
			<stop offset="0.6" stop-color="#2EC2F2" stop-opacity="1.0000" />
			<stop offset="0.7" stop-color="#2EC2F2" stop-opacity="1.0000" />
			<stop offset="0.8" stop-color="#2EC2F2" stop-opacity="1.0000" />
		</linearGradient>
		<linearGradient id="watergrad7" x1="50%" x2="50%" y1="0%" y2="100%">
			<stop offset="0" stop-color="#2EC2F2" stop-opacity="1.0000" />
			<stop offset="0.1" stop-color="#2EC2F2" stop-opacity="1.0000" />
			<stop offset="0.2" stop-color="#2EC2F2" stop-opacity="1.0000" />
			<stop offset="0.3" stop-color="#2EC2F2" stop-opacity="1.0000" />
			<stop offset="0.4" stop-color="#2EC2F2" stop-opacity="1.0000" />
			<stop offset="0.5" stop-color="#2EC2F2" stop-opacity="1.0000" />
			<stop offset="0.6" stop-color="#2EC2F2" stop-opacity="1.0000" />
			<stop offset="0.7" stop-color="#2EC2F2" stop-opacity="1.0000" />
			<stop offset="0.8" stop-color="#2EC2F2" stop-opacity="1.0000" />
		</linearGradient>
		<linearGradient id="watergrad8" x1="50%" x2="50%" y1="0%" y2="100%">
			<stop offset="0" stop-color="#2EC2F2" stop-opacity="1.0000" />
			<stop offset="0.1" stop-color="#2EC2F2" stop-opacity="1.0000" />
			<stop offset="0.2" stop-color="#2EC2F2" stop-opacity="1.0000" />
			<stop offset="0.3" stop-color="#2EC2F2" stop-opacity="1.0000" />
			<stop offset="0.4" stop-color="#2EC2F2" stop-opacity="1.0000" />
			<stop offset="0.5" stop-color="#2EC2F2" stop-opacity="1.0000" />
			<stop offset="0.6" stop-color="#2EC2F2" stop-opacity="1.0000" />
			<stop offset="0.7" stop-color="#2EC2F2" stop-opacity="1.0000" />
			<stop offset="0.8" stop-color="#2EC2F2" stop-opacity="1.0000" />
		</linearGradient>
		<linearGradient id="watergrad9" x1="50%" x2="50%" y1="0%" y2="100%">
			<stop offset="0" stop-color="#2EC2F2" stop-opacity="1.0000" />
			<stop offset="0.1" stop-color="#2EC2F2" stop-opacity="1.0000" />
			<stop offset="0.2" stop-color="#2EC2F2" stop-opacity="1.0000" />
			<stop offset="0.3" stop-color="#2EC2F2" stop-opacity="1.0000" />
			<stop offset="0.4" stop-color="#2EC2F2" stop-opacity="1.0000" />
			<stop offset="0.5" stop-color="#2EC2F2" stop-opacity="1.0000" />
			<stop offset="0.6" stop-color="#2EC2F2" stop-opacity="1.0000" />
			<stop offset="0.7" stop-color="#2EC2F2" stop-opacity="1.0000" />
			<stop offset="0.8" stop-color="#2EC2F2" stop-opacity="1.0000" />
		</linearGradient>
		<linearGradient id="watergrad10" x1="50%" x2="50%" y1="0%" y2="100%">
			<stop offset="0" stop-color="#2EC2F2" stop-opacity="0.9957" />
			<stop offset="0.1" stop-color="#2EC2F2" stop-opacity="1.0000" />
			<stop offset="0.2" stop-color="#2EC2F2" stop-opacity="1.0000" />
			<stop offset="0.3" stop-color="#2EC2F2" stop-opacity="1.0000" />
			<stop offset="0.4" stop-color="#2EC2F2" stop-opacity="1.0000" />
			<stop offset="0.5" stop-color="#2EC2F2" stop-opacity="1.0000" />
			<stop offset="0.6" stop-color="#2EC2F2" stop-opacity="1.0000" />
			<stop offset="0.7" stop-color="#2EC2F2" stop-opacity="1.0000" />
			<stop offset="0.8" stop-color="#2EC2F2" stop-opacity="1.0000" />
		</linearGradient>
		<linearGradient id="watergrad11" x1="50%" x2="50%" y1="0%" y2="100%">
			<stop offset="0" stop-color="#2EC2F2" stop-opacity="0.8548" />
			<stop offset="0.1" stop-color="#2EC2F2" stop-opacity="0.9974" />
			<stop offset="0.2" stop-color="#2EC2F2" stop-opacity="1.0000" />
			<stop offset="0.3" stop-color="#2EC2F2" stop-opacity="1.0000" />
			<stop offset="0.4" stop-color="#2EC2F2" stop-opacity="1.0000" />
			<stop offset="0.5" stop-color="#2EC2F2" stop-opacity="1.0000" />
			<stop offset="0.6" stop-color="#2EC2F2" stop-opacity="1.0000" />
			<stop offset="0.7" stop-color="#2EC2F2" stop-opacity="1.0000" />
			<stop offset="0.8" stop-color="#2EC2F2" stop-opacity="1.0000" />
		</linearGradient>
	</defs>
	<rect fill="white" height="1536" stroke="none" width="2048" x="0" y="0" />
	<svg height="614.4" id="month_01" preserveAspectRatio="none" viewBox="-20 0 40 614.4" width="152.064" x="163.84" y="814.08">
		<rect fill="#C8C8C8" height="614.4" stroke="none" width="40" x="-20" y="0" />
		<rect fill="url(#watergrad0)" height="614.4" stroke="none" width="40" x="-20" y="0" />
		<rect fill="#D97B27" height="34.755575808" stroke="none" width="40" x="-20" y="0" />
		<line fill="none" stroke="#6F6F6F" stroke-dasharray="40 20" x1="0" x2="0" y1="0" y2="614.4" />
		<polyline fill="none" points="-0.819172,0 -0.1497815,61.44 0.143613,122.88 0.2870777,153.6 0.5413474,184.32 1.070984,245.76 1.609693,307.2 2.122276,368.64 3.054165,491.52 3.8436,614.4 " stroke="url(#tempgrad)" stroke-width="2" />
		<line fill="none" stroke="black" stroke-width="8" x1="-20" x2="20" y1="0" y2="0" />
	</svg>
	<rect fill="url(#snowpat)" height="460.8" stroke="none" width="152.064" x="163.84" y="353.28" />
	<polygon fill="#C8C8C8" points="163.84,354.28 315.904,354.28 239.872,322.56 " stroke="none" />
	<text baseline-shift="-20%" fill="black" font-weight="bold" text-anchor="middle" transform="rotate(-90,239.872,414.72)" x="239.872" y="414.72">123 cm
	</text>
	<rect fill="#FF5000" height="0" stroke="none" width="20.9743448275862" x="179.0464" y="814.08" />
	<rect fill="#FF9A00" height="0" stroke="none" width="20.9743448275862" x="204.215613793103" y="814.08" />
	<rect fill="#FFCB00" height="0" stroke="none" width="20.9743448275862" x="229.384827586207" y="814.08" />
	<rect fill="#84FF00" height="0" stroke="none" width="20.9743448275862" x="254.55404137931" y="814.08" />
	<rect fill="#00FFAE" height="0" stroke="none" width="20.9743448275862" x="279.723255172414" y="814.08" />
	<text baseline-shift="-150%" text-anchor="middle" x="239.872" y="40.96">Jan
	</text>
	<svg height="614.4" id="month_02" preserveAspectRatio="none" viewBox="-20 0 40 614.4" width="152.064" x="317.44" y="814.08">
		<rect fill="#C8C8C8" height="614.4" stroke="none" width="40" x="-20" y="0" />
		<rect fill="url(#watergrad1)" height="614.4" stroke="none" width="40" x="-20" y="0" />
		<rect fill="#D97B27" height="36.806627328" stroke="none" width="40" x="-20" y="0" />
		<line fill="none" stroke="#6F6F6F" stroke-dasharray="40 20" x1="0" x2="0" y1="0" y2="614.4" />
		<polyline fill="none" points="-1.109346,0 -0.4143132,61.44 0.0112205,122.88 0.02431162,153.6 0.2159708,184.32 0.6408145,245.76 1.099892,307.2 1.54273,368.64 2.368098,491.52 3.098994,614.4 " stroke="url(#tempgrad)" stroke-width="2" />
		<line fill="none" stroke="black" stroke-width="8" x1="-20" x2="20" y1="0" y2="0" />
	</svg>
	<rect fill="url(#snowpat)" height="460.8" stroke="none" width="152.064" x="317.44" y="353.28" />
	<polygon fill="#C8C8C8" points="317.44,354.28 469.504,354.28 393.472,322.56 " stroke="none" />
	<text baseline-shift="-20%" fill="black" font-weight="bold" text-anchor="middle" transform="rotate(-90,393.472,414.72)" x="393.472" y="414.72">172 cm
	</text>
	<rect fill="#FF5000" height="0" stroke="none" width="20.9743448275862" x="332.6464" y="814.08" />
	<rect fill="#FF9A00" height="0" stroke="none" width="20.9743448275862" x="357.815613793103" y="814.08" />
	<rect fill="#FFCB00" height="0" stroke="none" width="20.9743448275862" x="382.984827586207" y="814.08" />
	<rect fill="#84FF00" height="0" stroke="none" width="20.9743448275862" x="408.15404137931" y="814.08" />
	<rect fill="#00FFAE" height="0" stroke="none" width="20.9743448275862" x="433.323255172414" y="814.08" />
	<line fill="none" stroke="#6F6F6F" stroke-width="6" x1="316.672" x2="316.672" y1="1428.48" y2="40.96" />
	<text baseline-shift="-150%" text-anchor="middle" x="393.472" y="40.96">Feb
	</text>
	<svg height="614.4" id="month_03" preserveAspectRatio="none" viewBox="-20 0 40 614.4" width="152.064" x="471.04" y="814.08">
		<rect fill="#C8C8C8" height="614.4" stroke="none" width="40" x="-20" y="0" />
		<rect fill="url(#watergrad2)" height="614.4" stroke="none" width="40" x="-20" y="0" />
		<rect fill="#D97B27" height="38.747725824" stroke="none" width="40" x="-20" y="0" />
		<line fill="none" stroke="#6F6F6F" stroke-dasharray="40 20" x1="0" x2="0" y1="0" y2="614.4" />
		<polyline fill="none" points="-0.8291792,0 -0.3367781,61.44 -0.0261268,122.88 0,153.6 0.1347392,184.32 0.4619931,245.76 0.8440183,307.2 1.218658,368.64 1.935817,491.52 2.596447,614.4 " stroke="url(#tempgrad)" stroke-width="2" />
		<line fill="none" stroke="black" stroke-width="8" x1="-20" x2="20" y1="0" y2="0" />
	</svg>
	<rect fill="url(#snowpat)" height="460.8" stroke="none" width="152.064" x="471.04" y="353.28" />
	<polygon fill="#C8C8C8" points="471.04,354.28 623.104,354.28 547.072,322.56 " stroke="none" />
	<text baseline-shift="-20%" fill="black" font-weight="bold" text-anchor="middle" transform="rotate(-90,547.072,414.72)" x="547.072" y="414.72">217 cm
	</text>
	<rect fill="#FF5000" height="0" stroke="none" width="20.9743448275862" x="486.2464" y="814.08" />
	<rect fill="#FF9A00" height="0" stroke="none" width="20.9743448275862" x="511.415613793103" y="814.08" />
	<rect fill="#FFCB00" height="0" stroke="none" width="20.9743448275862" x="536.584827586207" y="814.08" />
	<rect fill="#84FF00" height="0" stroke="none" width="20.9743448275862" x="561.75404137931" y="814.08" />
	<rect fill="#00FFAE" height="0" stroke="none" width="20.9743448275862" x="586.923255172414" y="814.08" />
	<line fill="none" stroke="#6F6F6F" stroke-width="6" x1="470.272" x2="470.272" y1="1428.48" y2="40.96" />
	<text baseline-shift="-150%" text-anchor="middle" x="547.072" y="40.96">Mar
	</text>
	<svg height="614.4" id="month_04" preserveAspectRatio="none" viewBox="-20 0 40 614.4" width="152.064" x="624.64" y="814.08">
		<rect fill="#C8C8C8" height="614.4" stroke="none" width="40" x="-20" y="0" />
		<rect fill="url(#watergrad3)" height="614.4" stroke="none" width="40" x="-20" y="0" />
		<line fill="none" stroke="#6F6F6F" stroke-dasharray="40 20" x1="0" x2="0" y1="0" y2="614.4" />
		<polyline fill="none" points="-0.3037927,0 -0.14318,61.44 -0.0270858,122.88 0.004212405,153.6 0.1308797,184.32 0.4158745,245.76 0.7328267,307.2 1.048932,368.64 1.668097,491.52 2.25585,614.4 " stroke="url(#tempgrad)" stroke-width="2" />
		<line fill="none" stroke="black" stroke-width="8" x1="-20" x2="20" y1="0" y2="0" />
	</svg>
	<rect fill="url(#snowpat)" height="460.8" stroke="none" width="152.064" x="624.64" y="353.28" />
	<polygon fill="#C8C8C8" points="624.64,354.28 776.704,354.28 700.672,322.56 " stroke="none" />
	<text baseline-shift="-20%" fill="black" font-weight="bold" text-anchor="middle" transform="rotate(-90,700.672,414.72)" x="700.672" y="414.72">141 cm
	</text>
	<rect fill="#2EC2F2" height="10.044647424" stroke="none" width="152.064" x="624.64" y="804.035352576" />
	<rect fill="#FF5000" height="0" stroke="none" width="20.9743448275862" x="639.8464" y="814.08" />
	<rect fill="#FF9A00" height="0" stroke="none" width="20.9743448275862" x="665.015613793104" y="814.08" />
	<rect fill="#FFCB00" height="0" stroke="none" width="20.9743448275862" x="690.184827586207" y="814.08" />
	<rect fill="#84FF00" height="0.30988998144" stroke="none" width="20.9743448275862" x="715.354041379311" y="813.77011001856" />
	<rect fill="#00FFAE" height="0.7104858624" stroke="none" width="20.9743448275862" x="740.523255172414" y="813.3695141376" />
	<line fill="none" stroke="#6F6F6F" stroke-width="6" x1="623.872" x2="623.872" y1="1428.48" y2="40.96" />
	<text baseline-shift="-150%" text-anchor="middle" x="700.672" y="40.96">Apr
	</text>
	<svg height="614.4" id="month_05" preserveAspectRatio="none" viewBox="-20 0 40 614.4" width="152.064" x="778.24" y="814.08">
		<rect fill="#C8C8C8" height="614.4" stroke="none" width="40" x="-20" y="0" />
		<rect fill="url(#watergrad4)" height="614.4" stroke="none" width="40" x="-20" y="0" />
		<line fill="none" stroke="#6F6F6F" stroke-dasharray="40 20" x1="0" x2="0" y1="0" y2="614.4" />
		<polyline fill="none" points="4.737006,0 1.65012,61.44 0.9340121,122.88 1.112229,153.6 1.110263,184.32 1.115562,245.76 1.172497,307.2 1.299012,368.64 1.669104,491.52 2.10995,614.4 " stroke="url(#tempgrad)" stroke-width="2" />
		<line fill="none" stroke="black" stroke-width="8" x1="-20" x2="20" y1="0" y2="0" />
	</svg>
	<rect fill="url(#snowpat)" height="119.87828736" stroke="none" width="152.064" x="778.24" y="694.20171264" />
	<rect fill="#2EC2F2" height="56.587579392" stroke="none" width="152.064" x="778.24" y="757.492420608" />
	<rect fill="#FF5000" height="0" stroke="none" width="20.9743448275862" x="793.4464" y="814.08" />
	<rect fill="#FF9A00" height="0" stroke="none" width="20.9743448275862" x="818.615613793104" y="814.08" />
	<rect fill="#FFCB00" height="0" stroke="none" width="20.9743448275862" x="843.784827586207" y="814.08" />
	<rect fill="#84FF00" height="230.81375232" stroke="none" width="20.9743448275862" x="868.954041379311" y="583.26624768" />
	<rect fill="#00FFAE" height="165.69391104" stroke="none" width="20.9743448275862" x="894.123255172414" y="648.38608896" />
	<line fill="none" stroke="#6F6F6F" stroke-width="6" x1="777.472" x2="777.472" y1="1428.48" y2="40.96" />
	<text baseline-shift="-150%" text-anchor="middle" x="854.272" y="40.96">May
	</text>
	<svg height="614.4" id="month_06" preserveAspectRatio="none" viewBox="-20 0 40 614.4" width="152.064" x="931.84" y="814.08">
		<rect fill="#C8C8C8" height="614.4" stroke="none" width="40" x="-20" y="0" />
		<rect fill="url(#watergrad5)" height="614.4" stroke="none" width="40" x="-20" y="0" />
		<line fill="none" stroke="#6F6F6F" stroke-dasharray="40 20" x1="0" x2="0" y1="0" y2="614.4" />
		<polyline fill="none" points="13.61491,0 11.75775,61.44 10.08123,122.88 9.297634,153.6 8.570084,184.32 7.180469,245.76 5.992281,307.2 5.061321,368.64 3.842198,491.52 3.260343,614.4 " stroke="url(#tempgrad)" stroke-width="2" />
		<line fill="none" stroke="black" stroke-width="8" x1="-20" x2="20" y1="0" y2="0" />
	</svg>
	<rect fill="#2EC2F2" height="9.449121792" stroke="none" width="152.064" x="931.84" y="804.630878208" />
	<rect fill="#FF5000" height="0" stroke="none" width="20.9743448275862" x="947.0464" y="814.08" />
	<rect fill="#FF9A00" height="0" stroke="none" width="20.9743448275862" x="972.215613793104" y="814.08" />
	<rect fill="#FFCB00" height="0" stroke="none" width="20.9743448275862" x="997.384827586207" y="814.08" />
	<rect fill="#84FF00" height="385.96571136" stroke="none" width="20.9743448275862" x="1022.55404137931" y="428.11428864" />
	<rect fill="#00FFAE" height="221.27832576" stroke="none" width="20.9743448275862" x="1047.72325517241" y="592.80167424" />
	<line fill="none" stroke="#6F6F6F" stroke-width="6" x1="931.072" x2="931.072" y1="1428.48" y2="40.96" />
	<text baseline-shift="-150%" text-anchor="middle" x="1007.872" y="40.96">Jun
	</text>
	<svg height="614.4" id="month_07" preserveAspectRatio="none" viewBox="-20 0 40 614.4" width="152.064" x="1085.44" y="814.08">
		<rect fill="#C8C8C8" height="614.4" stroke="none" width="40" x="-20" y="0" />
		<rect fill="url(#watergrad6)" height="614.4" stroke="none" width="40" x="-20" y="0" />
		<rect fill="#D97B27" height="39.622404096" stroke="none" width="40" x="-20" y="0" />
		<line fill="none" stroke="#6F6F6F" stroke-dasharray="40 20" x1="0" x2="0" y1="0" y2="614.4" />
		<polyline fill="none" points="16.28506,0 15.01919,61.44 13.80027,122.88 13.21124,153.6 12.60408,184.32 11.3744,245.76 10.185,307.2 9.109802,368.64 7.314353,491.52 5.980147,614.4 " stroke="url(#tempgrad)" stroke-width="2" />
		<line fill="none" stroke="black" stroke-width="8" x1="-20" x2="20" y1="0" y2="0" />
	</svg>
	<rect fill="#FF5000" height="0" stroke="none" width="20.9743448275862" x="1100.6464" y="814.08" />
	<rect fill="#FF9A00" height="0" stroke="none" width="20.9743448275862" x="1125.8156137931" y="814.08" />
	<rect fill="#FFCB00" height="0" stroke="none" width="20.9743448275862" x="1150.98482758621" y="814.08" />
	<rect fill="#84FF00" height="359.3569536" stroke="none" width="20.9743448275862" x="1176.15404137931" y="454.7230464" />
	<rect fill="#00FFAE" height="154.524672" stroke="none" width="20.9743448275862" x="1201.32325517241" y="659.555328" />
	<line fill="none" stroke="#6F6F6F" stroke-width="6" x1="1084.672" x2="1084.672" y1="1428.48" y2="40.96" />
	<text baseline-shift="-150%" text-anchor="middle" x="1161.472" y="40.96">Jul
	</text>
	<svg height="614.4" id="month_08" preserveAspectRatio="none" viewBox="-20 0 40 614.4" width="152.064" x="1239.04" y="814.08">
		<rect fill="#C8C8C8" height="614.4" stroke="none" width="40" x="-20" y="0" />
		<rect fill="url(#watergrad7)" height="614.4" stroke="none" width="40" x="-20" y="0" />
		<rect fill="#D97B27" height="45.284333568" stroke="none" width="40" x="-20" y="0" />
		<line fill="none" stroke="#6F6F6F" stroke-dasharray="40 20" x1="0" x2="0" y1="0" y2="614.4" />
		<polyline fill="none" points="15.28251,0 14.72029,61.44 14.09194,122.88 13.76822,153.6 13.39508,184.32 12.60024,245.76 11.75964,307.2 10.93338,368.64 9.382839,491.52 8.032744,614.4 " stroke="url(#tempgrad)" stroke-width="2" />
		<line fill="none" stroke="black" stroke-width="8" x1="-20" x2="20" y1="0" y2="0" />
	</svg>
	<rect fill="#FF5000" height="0" stroke="none" width="20.9743448275862" x="1254.2464" y="814.08" />
	<rect fill="#FF9A00" height="0" stroke="none" width="20.9743448275862" x="1279.4156137931" y="814.08" />
	<rect fill="#FFCB00" height="0" stroke="none" width="20.9743448275862" x="1304.58482758621" y="814.08" />
	<rect fill="#84FF00" height="356.70523392" stroke="none" width="20.9743448275862" x="1329.75404137931" y="457.37476608" />
	<rect fill="#00FFAE" height="148.59956736" stroke="none" width="20.9743448275862" x="1354.92325517241" y="665.48043264" />
	<line fill="none" stroke="#6F6F6F" stroke-width="6" x1="1238.272" x2="1238.272" y1="1428.48" y2="40.96" />
	<text baseline-shift="-150%" text-anchor="middle" x="1315.072" y="40.96">Aug
	</text>
	<svg height="614.4" id="month_09" preserveAspectRatio="none" viewBox="-20 0 40 614.4" width="152.064" x="1392.64" y="814.08">
		<rect fill="#C8C8C8" height="614.4" stroke="none" width="40" x="-20" y="0" />
		<rect fill="url(#watergrad8)" height="614.4" stroke="none" width="40" x="-20" y="0" />
		<rect fill="#D97B27" height="32.532731904" stroke="none" width="40" x="-20" y="0" />
		<line fill="none" stroke="#6F6F6F" stroke-dasharray="40 20" x1="0" x2="0" y1="0" y2="614.4" />
		<polyline fill="none" points="11.08186,0 11.32312,61.44 11.41763,122.88 11.4302,153.6 11.38054,184.32 11.21846,245.76 10.94937,307.2 10.60342,368.64 9.765949,491.52 8.848289,614.4 " stroke="url(#tempgrad)" stroke-width="2" />
		<line fill="none" stroke="black" stroke-width="8" x1="-20" x2="20" y1="0" y2="0" />
	</svg>
	<rect fill="#FF5000" height="0" stroke="none" width="20.9743448275862" x="1407.8464" y="814.08" />
	<rect fill="#FF9A00" height="0" stroke="none" width="20.9743448275862" x="1433.0156137931" y="814.08" />
	<rect fill="#FFCB00" height="0" stroke="none" width="20.9743448275862" x="1458.18482758621" y="814.08" />
	<rect fill="#84FF00" height="327.93633792" stroke="none" width="20.9743448275862" x="1483.35404137931" y="486.14366208" />
	<rect fill="#00FFAE" height="191.99572992" stroke="none" width="20.9743448275862" x="1508.52325517241" y="622.08427008" />
	<line fill="none" stroke="#6F6F6F" stroke-width="6" x1="1391.872" x2="1391.872" y1="1428.48" y2="40.96" />
	<text baseline-shift="-150%" text-anchor="middle" x="1468.672" y="40.96">Sep
	</text>
	<svg height="614.4" id="month_10" preserveAspectRatio="none" viewBox="-20 0 40 614.4" width="152.064" x="1546.24" y="814.08">
		<rect fill="#C8C8C8" height="614.4" stroke="none" width="40" x="-20" y="0" />
		<rect fill="url(#watergrad9)" height="614.4" stroke="none" width="40" x="-20" y="0" />
		<rect fill="#D97B27" height="13.934125056" stroke="none" width="40" x="-20" y="0" />
		<line fill="none" stroke="#6F6F6F" stroke-dasharray="40 20" x1="0" x2="0" y1="0" y2="614.4" />
		<polyline fill="none" points="5.54438,0 6.414531,61.44 7.106553,122.88 7.407951,153.6 7.653317,184.32 8.087626,245.76 8.394595,307.2 8.570879,368.64 8.614902,491.52 8.367744,614.4 " stroke="url(#tempgrad)" stroke-width="2" />
		<line fill="none" stroke="black" stroke-width="8" x1="-20" x2="20" y1="0" y2="0" />
	</svg>
	<rect fill="#FF5000" height="0" stroke="none" width="20.9743448275862" x="1561.4464" y="814.08" />
	<rect fill="#FF9A00" height="0" stroke="none" width="20.9743448275862" x="1586.6156137931" y="814.08" />
	<rect fill="#FFCB00" height="0" stroke="none" width="20.9743448275862" x="1611.78482758621" y="814.08" />
	<rect fill="#84FF00" height="102.79199232" stroke="none" width="20.9743448275862" x="1636.95404137931" y="711.28800768" />
	<rect fill="#00FFAE" height="89.43151104" stroke="none" width="20.9743448275862" x="1662.12325517241" y="724.64848896" />
	<line fill="none" stroke="#6F6F6F" stroke-width="6" x1="1545.472" x2="1545.472" y1="1428.48" y2="40.96" />
	<text baseline-shift="-150%" text-anchor="middle" x="1622.272" y="40.96">Oct
	</text>
	<svg height="614.4" id="month_11" preserveAspectRatio="none" viewBox="-20 0 40 614.4" width="152.064" x="1699.84" y="814.08">
		<rect fill="#C8C8C8" height="614.4" stroke="none" width="40" x="-20" y="0" />
		<rect fill="url(#watergrad10)" height="614.4" stroke="none" width="40" x="-20" y="0" />
		<rect fill="#D97B27" height="10.730428416" stroke="none" width="40" x="-20" y="0" />
		<line fill="none" stroke="#6F6F6F" stroke-dasharray="40 20" x1="0" x2="0" y1="0" y2="614.4" />
		<polyline fill="none" points="0.2842264,0 1.409118,61.44 2.371213,122.88 2.837093,153.6 3.28052,184.32 4.140848,245.76 4.903221,307.2 5.527507,368.64 6.405558,491.52 6.87348,614.4 " stroke="url(#tempgrad)" stroke-width="2" />
		<line fill="none" stroke="black" stroke-width="8" x1="-20" x2="20" y1="0" y2="0" />
	</svg>
	<rect fill="url(#snowpat)" height="103.1018496" stroke="none" width="152.064" x="1699.84" y="710.9781504" />
	<rect fill="#FF5000" height="0" stroke="none" width="20.9743448275862" x="1715.0464" y="814.08" />
	<rect fill="#FF9A00" height="0" stroke="none" width="20.9743448275862" x="1740.2156137931" y="814.08" />
	<rect fill="#FFCB00" height="0" stroke="none" width="20.9743448275862" x="1765.38482758621" y="814.08" />
	<rect fill="#84FF00" height="0" stroke="none" width="20.9743448275862" x="1790.55404137931" y="814.08" />
	<rect fill="#00FFAE" height="0" stroke="none" width="20.9743448275862" x="1815.72325517241" y="814.08" />
	<line fill="none" stroke="#6F6F6F" stroke-width="6" x1="1699.072" x2="1699.072" y1="1428.48" y2="40.96" />
	<text baseline-shift="-150%" text-anchor="middle" x="1775.872" y="40.96">Nov
	</text>
	<svg height="614.4" id="month_12" preserveAspectRatio="none" viewBox="-20 0 40 614.4" width="152.064" x="1853.44" y="814.08">
		<rect fill="#C8C8C8" height="614.4" stroke="none" width="40" x="-20" y="0" />
		<rect fill="url(#watergrad11)" height="614.4" stroke="none" width="40" x="-20" y="0" />
		<rect fill="#D97B27" height="32.12120064" stroke="none" width="40" x="-20" y="0" />
		<line fill="none" stroke="#6F6F6F" stroke-dasharray="40 20" x1="0" x2="0" y1="0" y2="614.4" />
		<polyline fill="none" points="-0.8874398,0 0.08698777,61.44 0.4936853,122.88 0.8113031,153.6 1.159097,184.32 1.868493,245.76 2.563541,307.2 3.199214,368.64 4.274912,491.52 5.081753,614.4 " stroke="url(#tempgrad)" stroke-width="2" />
		<line fill="none" stroke="black" stroke-width="8" x1="-20" x2="20" y1="0" y2="0" />
	</svg>
	<rect fill="url(#snowpat)" height="441.38827776" stroke="none" width="152.064" x="1853.44" y="372.69172224" />
	<rect fill="#FF5000" height="0" stroke="none" width="20.9743448275862" x="1868.6464" y="814.08" />
	<rect fill="#FF9A00" height="0" stroke="none" width="20.9743448275862" x="1893.8156137931" y="814.08" />
	<rect fill="#FFCB00" height="0" stroke="none" width="20.9743448275862" x="1918.98482758621" y="814.08" />
	<rect fill="#84FF00" height="0" stroke="none" width="20.9743448275862" x="1944.15404137931" y="814.08" />
	<rect fill="#00FFAE" height="0" stroke="none" width="20.9743448275862" x="1969.32325517241" y="814.08" />
	<line fill="none" stroke="#6F6F6F" stroke-width="6" x1="1852.672" x2="1852.672" y1="1428.48" y2="40.96" />
	<text baseline-shift="-150%" text-anchor="middle" x="1929.472" y="40.96">Dec
	</text>
	<rect fill="white" height="194.4" stroke="none" width="792" x="189.533572413793" y="115.68" />
	<polyline fill="none" opacity="0.75" points="189.533572413793,808.96 189.533572413793,140.88 381.696,140.88 " stroke="#FF5000" stroke-width="6" />
	<text baseline-shift="-45%" fill="#FF5000" font-weight="bold" stroke="none" x="391.936" y="140.88">Boreal evergreen needleleaf tree
	</text>
	<polyline fill="none" opacity="0.75" points="214.702786206897,808.96 214.702786206897,176.88 381.696,176.88 " stroke="#FF9A00" stroke-width="6" />
	<text baseline-shift="-45%" fill="#FF9A00" font-weight="bold" stroke="none" x="391.936" y="176.88">Boreal summergreen broadleaf tree
	</text>
	<polyline fill="none" opacity="0.75" points="239.872,808.96 239.872,212.88 381.696,212.88 " stroke="#FFCB00" stroke-width="6" />
	<text baseline-shift="-45%" fill="#FFCB00" font-weight="bold" stroke="none" x="391.936" y="212.88">C3 grass
	</text>
	<polyline fill="none" opacity="0.75" points="265.041213793103,808.96 265.041213793103,248.88 381.696,248.88 " stroke="#84FF00" stroke-width="6" />
	<text baseline-shift="-45%" fill="#84FF00" font-weight="bold" stroke="none" x="391.936" y="248.88">Flood-tolerant graminoid
	</text>
	<polyline fill="none" opacity="0.75" points="290.210427586207,808.96 290.210427586207,284.88 381.696,284.88 " stroke="#00FFAE" stroke-width="6" />
	<text baseline-shift="-45%" fill="#00FFAE" font-weight="bold" stroke="none" x="391.936" y="284.88">Peatmoss
	</text>
	<g id="temp_scale">
		<g id="temp_scale_lines" style="fill: none; stroke: black">
			<line stroke-width="4" x1="239.872" x2="239.872" y1="1438.72" y2="1448.96" />
		</g>
		<g id="temp_scale_labels" style="fill: black; stroke: none">
			<text baseline-shift="-60%" text-anchor="middle" x="163.84" y="1459.2">-20
			</text>
			<text baseline-shift="-60%" text-anchor="middle" x="239.872" y="1459.2">0
			</text>
			<text baseline-shift="-60%" text-anchor="middle" x="315.904" y="1459.2">20
			</text>
		</g>
	</g>
	<polyline fill="none" points="163.84,1448.96 163.84,1438.72 315.904,1438.72 315.904,1448.96 " stroke="black" stroke-width="4" />
	<g id="depth_scale">
		<g id="depth_scale_lines" style="fill: none; stroke: black">
			<line stroke-width="4" x1="153.6" x2="143.36" y1="1274.88" y2="1274.88" />
			<line stroke-width="4" x1="153.6" x2="143.36" y1="1121.28" y2="1121.28" />
			<line stroke-width="4" x1="153.6" x2="143.36" y1="967.68" y2="967.68" />
			<line stroke-width="4" x1="153.6" x2="143.36" y1="814.08" y2="814.08" />
			<line stroke-width="4" x1="153.6" x2="143.36" y1="660.48" y2="660.48" />
			<line stroke-width="4" x1="153.6" x2="143.36" y1="506.88" y2="506.88" />
		</g>
		<g id="depth_scale_labels" style="fill: black; stroke: none">
			<text baseline-shift="-50%" text-anchor="end" x="133.12" y="1428.48">-100
			</text>
			<text baseline-shift="-50%" text-anchor="end" x="133.12" y="1274.88">-75
			</text>
			<text baseline-shift="-50%" text-anchor="end" x="133.12" y="1121.28">-50
			</text>
			<text baseline-shift="-50%" text-anchor="end" x="133.12" y="967.68">-25
			</text>
			<text baseline-shift="-50%" text-anchor="end" x="133.12" y="814.08">0
			</text>
			<text baseline-shift="-50%" text-anchor="end" x="133.12" y="660.48">25
			</text>
			<text baseline-shift="-50%" text-anchor="end" x="133.12" y="506.88">50
			</text>
			<text baseline-shift="-50%" text-anchor="end" x="133.12" y="353.28">75
			</text>
		</g>
	</g>
	<polyline fill="none" points="143.36,1428.48 153.6,1428.48 153.6,353.28 143.36,353.28 " stroke="black" stroke-width="4" />
	<g id="npp_scale">
		<g id="npp_scale_lines" style="fill: none; stroke: black">
			<line stroke-width="4" x1="81.92" x2="71.68" y1="698.88" y2="698.88" />
			<line stroke-width="4" x1="81.92" x2="71.68" y1="583.68" y2="583.68" />
			<line stroke-width="4" x1="81.92" x2="71.68" y1="468.48" y2="468.48" />
			<line stroke-width="4" x1="81.92" x2="71.68" y1="353.28" y2="353.28" />
			<line stroke-width="4" x1="81.92" x2="71.68" y1="238.08" y2="238.08" />
		</g>
		<g id="npp_scale_labels" style="fill: black; stroke: none">
			<text baseline-shift="-50%" text-anchor="end" x="61.44" y="814.08">0
			</text>
			<text baseline-shift="-50%" text-anchor="end" x="61.44" y="698.88">25
			</text>
			<text baseline-shift="-50%" text-anchor="end" x="61.44" y="583.68">50
			</text>
			<text baseline-shift="-50%" text-anchor="end" x="61.44" y="468.48">75
			</text>
			<text baseline-shift="-50%" text-anchor="end" x="61.44" y="353.28">100
			</text>
			<text baseline-shift="-50%" text-anchor="end" x="61.44" y="238.08">125
			</text>
			<text baseline-shift="-50%" text-anchor="end" x="61.44" y="122.88">150
			</text>
		</g>
	</g>
	<polyline fill="none" points="71.68,814.08 81.92,814.08 81.92,122.88 71.68,122.88 " stroke="black" stroke-width="4" />
	<text text-anchor="middle" x="239.872" y="1510.4">Soil temperature (&#176;C)
	</text>
	<text x="20.48" y="1182.72">Soil
	</text>
	<text x="20.48" y="1218.72">depth
	</text>
	<text x="20.48" y="1254.72">(cm)
	</text>
	<text x="20.48" y="50.8799999999999">Monthly NPP
	</text>
	<text x="20.48" y="86.8799999999999">
		<tspan >(gC/m
		</tspan>
		<tspan dx="-10" dy="-10" font-size="75%">2
		</tspan>
		<tspan dx="-5" dy="10">)
		</tspan>
	</text>
	<text font-family="serif" font-size="150%" text-anchor="middle" x="1024" y="1500">(a) Canada, 45.75&#176;N 289.75&#176;E
	</text><!-- 
	Generated using the Perl SVG Module V2.33
	by Ronan Oger
	Info: http://www.roasp.com/
 -->
</svg>
