<?xml version="1.0" encoding="UTF-8" standalone="yes"?>
<!DOCTYPE svg PUBLIC "-//W3C//DTD SVG 1.0//EN" "http://www.w3.org/TR/2001/REC-SVG-20010904/DTD/svg10.dtd">
<svg font-family="sans-serif" font-size="32.4" height="1536" width="2048" xmlns="http://www.w3.org/2000/svg" xmlns:xlink="http://www.w3.org/1999/xlink">
	<defs >
		<linearGradient gradientUnits="userSpaceOnUse" id="tempgrad" x1="-20" x2="20" y1="50%" y2="50%">
			<stop offset="0.00" stop-color="#0000FF" />
			<stop offset="0.40" stop-color="#0000FF" />
			<stop offset="0.50" stop-color="#808080" />
			<stop offset="0.60" stop-color="#FF0000" />
			<stop offset="1.00" stop-color="#FF0000" />
		</linearGradient>
		<pattern height="150" id="snowpat" patternUnits="userSpaceOnUse" viewBox="0 0 200 200" width="150">
			<g id="snowpatg">
				<rect fill="#C8C8C8" height="200" stroke="none" width="200" x="0" y="0" />
				<path d="M 55.46565,56.1454 L 56.47795,55.5146 L 64.12445,57.40925 L 65.75405,64.8616 L 64.7418,65.4924 L 57.34595,63.85035 L 55.46565,56.1454 z M 47.1264,58.03955 L 48.31605,58.07575 L 50.5109,65.6958 L 44.9207,70.844 L 43.7311,70.80785 L 41.44445,63.5329 L 47.1264,58.03955 z M 58.39365,48.31035 L 58.10755,47.2344 L 63.5592,41.50905 L 70.779,43.81315 L 71.0651,44.8891 L 65.9559,50.522 L 58.39365,48.31035 z M 51.684,41.92425 L 52.87365,41.9605 L 58.5556,36.4672 L 56.26895,29.19225 L 55.0793,29.156 L 49.4891,34.3042 L 51.684,41.92425 z M 43.5221,44.4853 L 44.5344,43.8546 L 42.6541,36.14965 L 35.25825,34.5076 L 34.24595,35.1383 L 35.87555,42.59065 L 43.5221,44.4853 z M 29.22105,56.18695 L 28.9349,55.1108 L 34.0441,49.4779 L 41.60635,51.68955 L 41.8925,52.7657 L 36.44085,58.49105 L 29.22105,56.18695 z M 16.20715,59.70065 L 15.921,58.62455 L 26.10575,47.9226 L 18.5435,45.7109 L 5.2765,57.24505 L 0.4204,54.85755 L 7.9998,42.63985 L 0.68825,39.99065 L 0,37.4025 L 0.40055,35.89615 L 2.28085,34.0015 L 9.9274,35.3909 L 9.426,20.99145 L 14.8162,21.3704 L 20.58245,38.04345 L 28.229,39.9381 L 24.7191,25.53865 L 25.7314,24.90795 L 40.02165,28.44465 L 38.14135,20.7397 L 21.59475,14.9294 L 21.21865,9.498 L 35.50895,10.00325 L 34.13005,2.2983 L 36.01035,0.4036 L 37.50525,0 L 40.0738,0.6935 L 42.7029,8.0609 L 54.82795,0.4236 L 57.19735,5.3168 L 45.7507,18.6852 L 47.94555,26.30525 L 58.56635,16.0426 L 59.756,16.0789 L 63.8615,30.31755 L 69.54345,24.82425 L 66.26385,7.4798 L 70.7439,4.43595 L 77.4548,17.15885 L 83.38745,12.1031 L 85.956,12.7966 L 87.0503,13.8993 L 87.73855,16.48745 L 82.72115,22.46545 L 95.3476,29.22765 L 92.3268,33.74185 L 75.1139,30.4372 L 69.6622,36.1626 L 83.7929,40.29945 L 84.079,41.3754 L 73.89425,52.07735 L 81.4565,54.289 L 94.7235,42.75485 L 99.5796,45.14235 L 92.0002,57.36005 L 99.31175,60.00925 L 100,62.5974 L 99.59945,64.10375 L 97.71915,65.9984 L 90.0726,64.609 L 90.574,79.00845 L 85.1838,78.6295 L 79.41755,61.95645 L 71.771,60.0618 L 75.2809,74.46125 L 74.26865,75.09205 L 59.97835,71.55535 L 61.85865,79.2603 L 78.4053,85.0706 L 78.78135,90.502 L 64.4911,89.99675 L 65.86995,97.7017 L 63.98965,99.5964 L 62.49475,100 L 59.92625,99.3065 L 57.2971,91.9391 L 45.1721,99.57635 L 42.80265,94.6832 L 54.24935,81.3148 L 52.05445,73.69475 L 41.43365,83.95735 L 40.244,83.9212 L 36.13855,69.68255 L 30.4566,75.17585 L 33.73615,92.5203 L 29.25615,95.56415 L 22.54525,82.8412 L 16.6126,87.897 L 14.04405,87.2035 L 12.9497,86.1008 L 12.2615,83.5126 L 17.2789,77.53465 L 4.65245,70.77245 L 7.67325,66.2582 L 24.88615,69.56285 L 30.3378,63.8375 L 16.20715,59.70065 z " fill="white" fill-rule="evenodd" stroke="none" />
				<path d="M 55.46565,56.1454 L 56.47795,55.5146 L 64.12445,57.40925 L 65.75405,64.8616 L 64.7418,65.4924 L 57.34595,63.85035 L 55.46565,56.1454 z M 47.1264,58.03955 L 48.31605,58.07575 L 50.5109,65.6958 L 44.9207,70.844 L 43.7311,70.80785 L 41.44445,63.5329 L 47.1264,58.03955 z M 58.39365,48.31035 L 58.10755,47.2344 L 63.5592,41.50905 L 70.779,43.81315 L 71.0651,44.8891 L 65.9559,50.522 L 58.39365,48.31035 z M 51.684,41.92425 L 52.87365,41.9605 L 58.5556,36.4672 L 56.26895,29.19225 L 55.0793,29.156 L 49.4891,34.3042 L 51.684,41.92425 z M 43.5221,44.4853 L 44.5344,43.8546 L 42.6541,36.14965 L 35.25825,34.5076 L 34.24595,35.1383 L 35.87555,42.59065 L 43.5221,44.4853 z M 29.22105,56.18695 L 28.9349,55.1108 L 34.0441,49.4779 L 41.60635,51.68955 L 41.8925,52.7657 L 36.44085,58.49105 L 29.22105,56.18695 z M 16.20715,59.70065 L 15.921,58.62455 L 26.10575,47.9226 L 18.5435,45.7109 L 5.2765,57.24505 L 0.4204,54.85755 L 7.9998,42.63985 L 0.68825,39.99065 L 0,37.4025 L 0.40055,35.89615 L 2.28085,34.0015 L 9.9274,35.3909 L 9.426,20.99145 L 14.8162,21.3704 L 20.58245,38.04345 L 28.229,39.9381 L 24.7191,25.53865 L 25.7314,24.90795 L 40.02165,28.44465 L 38.14135,20.7397 L 21.59475,14.9294 L 21.21865,9.498 L 35.50895,10.00325 L 34.13005,2.2983 L 36.01035,0.4036 L 37.50525,0 L 40.0738,0.6935 L 42.7029,8.0609 L 54.82795,0.4236 L 57.19735,5.3168 L 45.7507,18.6852 L 47.94555,26.30525 L 58.56635,16.0426 L 59.756,16.0789 L 63.8615,30.31755 L 69.54345,24.82425 L 66.26385,7.4798 L 70.7439,4.43595 L 77.4548,17.15885 L 83.38745,12.1031 L 85.956,12.7966 L 87.0503,13.8993 L 87.73855,16.48745 L 82.72115,22.46545 L 95.3476,29.22765 L 92.3268,33.74185 L 75.1139,30.4372 L 69.6622,36.1626 L 83.7929,40.29945 L 84.079,41.3754 L 73.89425,52.07735 L 81.4565,54.289 L 94.7235,42.75485 L 99.5796,45.14235 L 92.0002,57.36005 L 99.31175,60.00925 L 100,62.5974 L 99.59945,64.10375 L 97.71915,65.9984 L 90.0726,64.609 L 90.574,79.00845 L 85.1838,78.6295 L 79.41755,61.95645 L 71.771,60.0618 L 75.2809,74.46125 L 74.26865,75.09205 L 59.97835,71.55535 L 61.85865,79.2603 L 78.4053,85.0706 L 78.78135,90.502 L 64.4911,89.99675 L 65.86995,97.7017 L 63.98965,99.5964 L 62.49475,100 L 59.92625,99.3065 L 57.2971,91.9391 L 45.1721,99.57635 L 42.80265,94.6832 L 54.24935,81.3148 L 52.05445,73.69475 L 41.43365,83.95735 L 40.244,83.9212 L 36.13855,69.68255 L 30.4566,75.17585 L 33.73615,92.5203 L 29.25615,95.56415 L 22.54525,82.8412 L 16.6126,87.897 L 14.04405,87.2035 L 12.9497,86.1008 L 12.2615,83.5126 L 17.2789,77.53465 L 4.65245,70.77245 L 7.67325,66.2582 L 24.88615,69.56285 L 30.3378,63.8375 L 16.20715,59.70065 z " fill="white" fill-rule="evenodd" stroke="none" transform="translate(100,90) rotate(15)" />
			</g>
		</pattern>
		<linearGradient id="watergrad0" x1="50%" x2="50%" y1="0%" y2="100%">
			<stop offset="0" stop-color="#2EC2F2" stop-opacity="0.1050" />
			<stop offset="0.1" stop-color="#2EC2F2" stop-opacity="0.0806" />
			<stop offset="0.2" stop-color="#2EC2F2" stop-opacity="0.0805" />
			<stop offset="0.3" stop-color="#2EC2F2" stop-opacity="0.0861" />
			<stop offset="0.4" stop-color="#2EC2F2" stop-opacity="0.0917" />
			<stop offset="0.5" stop-color="#2EC2F2" stop-opacity="0.0917" />
			<stop offset="0.6" stop-color="#2EC2F2" stop-opacity="0.0917" />
			<stop offset="0.7" stop-color="#2EC2F2" stop-opacity="0.0917" />
			<stop offset="0.8" stop-color="#2EC2F2" stop-opacity="0.0917" />
		</linearGradient>
		<linearGradient id="watergrad1" x1="50%" x2="50%" y1="0%" y2="100%">
			<stop offset="0" stop-color="#2EC2F2" stop-opacity="0.1050" />
			<stop offset="0.1" stop-color="#2EC2F2" stop-opacity="0.0806" />
			<stop offset="0.2" stop-color="#2EC2F2" stop-opacity="0.0805" />
			<stop offset="0.3" stop-color="#2EC2F2" stop-opacity="0.0861" />
			<stop offset="0.4" stop-color="#2EC2F2" stop-opacity="0.0917" />
			<stop offset="0.5" stop-color="#2EC2F2" stop-opacity="0.0917" />
			<stop offset="0.6" stop-color="#2EC2F2" stop-opacity="0.0917" />
			<stop offset="0.7" stop-color="#2EC2F2" stop-opacity="0.0917" />
			<stop offset="0.8" stop-color="#2EC2F2" stop-opacity="0.0917" />
		</linearGradient>
		<linearGradient id="watergrad2" x1="50%" x2="50%" y1="0%" y2="100%">
			<stop offset="0" stop-color="#2EC2F2" stop-opacity="0.1050" />
			<stop offset="0.1" stop-color="#2EC2F2" stop-opacity="0.0806" />
			<stop offset="0.2" stop-color="#2EC2F2" stop-opacity="0.0805" />
			<stop offset="0.3" stop-color="#2EC2F2" stop-opacity="0.0861" />
			<stop offset="0.4" stop-color="#2EC2F2" stop-opacity="0.0917" />
			<stop offset="0.5" stop-color="#2EC2F2" stop-opacity="0.0917" />
			<stop offset="0.6" stop-color="#2EC2F2" stop-opacity="0.0917" />
			<stop offset="0.7" stop-color="#2EC2F2" stop-opacity="0.0917" />
			<stop offset="0.8" stop-color="#2EC2F2" stop-opacity="0.0917" />
		</linearGradient>
		<linearGradient id="watergrad3" x1="50%" x2="50%" y1="0%" y2="100%">
			<stop offset="0" stop-color="#2EC2F2" stop-opacity="0.1050" />
			<stop offset="0.1" stop-color="#2EC2F2" stop-opacity="0.0806" />
			<stop offset="0.2" stop-color="#2EC2F2" stop-opacity="0.0805" />
			<stop offset="0.3" stop-color="#2EC2F2" stop-opacity="0.0861" />
			<stop offset="0.4" stop-color="#2EC2F2" stop-opacity="0.0917" />
			<stop offset="0.5" stop-color="#2EC2F2" stop-opacity="0.0917" />
			<stop offset="0.6" stop-color="#2EC2F2" stop-opacity="0.0917" />
			<stop offset="0.7" stop-color="#2EC2F2" stop-opacity="0.0917" />
			<stop offset="0.8" stop-color="#2EC2F2" stop-opacity="0.0917" />
		</linearGradient>
		<linearGradient id="watergrad4" x1="50%" x2="50%" y1="0%" y2="100%">
			<stop offset="0" stop-color="#2EC2F2" stop-opacity="0.1052" />
			<stop offset="0.1" stop-color="#2EC2F2" stop-opacity="0.0806" />
			<stop offset="0.2" stop-color="#2EC2F2" stop-opacity="0.0805" />
			<stop offset="0.3" stop-color="#2EC2F2" stop-opacity="0.0861" />
			<stop offset="0.4" stop-color="#2EC2F2" stop-opacity="0.0917" />
			<stop offset="0.5" stop-color="#2EC2F2" stop-opacity="0.0917" />
			<stop offset="0.6" stop-color="#2EC2F2" stop-opacity="0.0917" />
			<stop offset="0.7" stop-color="#2EC2F2" stop-opacity="0.0917" />
			<stop offset="0.8" stop-color="#2EC2F2" stop-opacity="0.0917" />
		</linearGradient>
		<linearGradient id="watergrad5" x1="50%" x2="50%" y1="0%" y2="100%">
			<stop offset="0" stop-color="#2EC2F2" stop-opacity="0.3786" />
			<stop offset="0.1" stop-color="#2EC2F2" stop-opacity="0.1064" />
			<stop offset="0.2" stop-color="#2EC2F2" stop-opacity="0.0837" />
			<stop offset="0.3" stop-color="#2EC2F2" stop-opacity="0.0877" />
			<stop offset="0.4" stop-color="#2EC2F2" stop-opacity="0.0917" />
			<stop offset="0.5" stop-color="#2EC2F2" stop-opacity="0.0917" />
			<stop offset="0.6" stop-color="#2EC2F2" stop-opacity="0.0917" />
			<stop offset="0.7" stop-color="#2EC2F2" stop-opacity="0.0917" />
			<stop offset="0.8" stop-color="#2EC2F2" stop-opacity="0.0917" />
		</linearGradient>
		<linearGradient id="watergrad6" x1="50%" x2="50%" y1="0%" y2="100%">
			<stop offset="0" stop-color="#2EC2F2" stop-opacity="0.9136" />
			<stop offset="0.1" stop-color="#2EC2F2" stop-opacity="0.5843" />
			<stop offset="0.2" stop-color="#2EC2F2" stop-opacity="0.3414" />
			<stop offset="0.3" stop-color="#2EC2F2" stop-opacity="0.2264" />
			<stop offset="0.4" stop-color="#2EC2F2" stop-opacity="0.1015" />
			<stop offset="0.5" stop-color="#2EC2F2" stop-opacity="0.0917" />
			<stop offset="0.6" stop-color="#2EC2F2" stop-opacity="0.0917" />
			<stop offset="0.7" stop-color="#2EC2F2" stop-opacity="0.0917" />
			<stop offset="0.8" stop-color="#2EC2F2" stop-opacity="0.0917" />
		</linearGradient>
		<linearGradient id="watergrad7" x1="50%" x2="50%" y1="0%" y2="100%">
			<stop offset="0" stop-color="#2EC2F2" stop-opacity="1.0000" />
			<stop offset="0.1" stop-color="#2EC2F2" stop-opacity="0.9699" />
			<stop offset="0.2" stop-color="#2EC2F2" stop-opacity="0.9399" />
			<stop offset="0.3" stop-color="#2EC2F2" stop-opacity="0.6038" />
			<stop offset="0.4" stop-color="#2EC2F2" stop-opacity="0.1799" />
			<stop offset="0.5" stop-color="#2EC2F2" stop-opacity="0.0919" />
			<stop offset="0.6" stop-color="#2EC2F2" stop-opacity="0.0917" />
			<stop offset="0.7" stop-color="#2EC2F2" stop-opacity="0.0917" />
			<stop offset="0.8" stop-color="#2EC2F2" stop-opacity="0.0917" />
		</linearGradient>
		<linearGradient id="watergrad8" x1="50%" x2="50%" y1="0%" y2="100%">
			<stop offset="0" stop-color="#2EC2F2" stop-opacity="0.9987" />
			<stop offset="0.1" stop-color="#2EC2F2" stop-opacity="1.0000" />
			<stop offset="0.2" stop-color="#2EC2F2" stop-opacity="1.0000" />
			<stop offset="0.3" stop-color="#2EC2F2" stop-opacity="0.7562" />
			<stop offset="0.4" stop-color="#2EC2F2" stop-opacity="0.3024" />
			<stop offset="0.5" stop-color="#2EC2F2" stop-opacity="0.0921" />
			<stop offset="0.6" stop-color="#2EC2F2" stop-opacity="0.0917" />
			<stop offset="0.7" stop-color="#2EC2F2" stop-opacity="0.0917" />
			<stop offset="0.8" stop-color="#2EC2F2" stop-opacity="0.0917" />
		</linearGradient>
		<linearGradient id="watergrad9" x1="50%" x2="50%" y1="0%" y2="100%">
			<stop offset="0" stop-color="#2EC2F2" stop-opacity="0.5820" />
			<stop offset="0.1" stop-color="#2EC2F2" stop-opacity="0.8249" />
			<stop offset="0.2" stop-color="#2EC2F2" stop-opacity="0.8880" />
			<stop offset="0.3" stop-color="#2EC2F2" stop-opacity="0.6124" />
			<stop offset="0.4" stop-color="#2EC2F2" stop-opacity="0.2143" />
			<stop offset="0.5" stop-color="#2EC2F2" stop-opacity="0.0917" />
			<stop offset="0.6" stop-color="#2EC2F2" stop-opacity="0.0917" />
			<stop offset="0.7" stop-color="#2EC2F2" stop-opacity="0.0917" />
			<stop offset="0.8" stop-color="#2EC2F2" stop-opacity="0.0917" />
		</linearGradient>
		<linearGradient id="watergrad10" x1="50%" x2="50%" y1="0%" y2="100%">
			<stop offset="0" stop-color="#2EC2F2" stop-opacity="0.1150" />
			<stop offset="0.1" stop-color="#2EC2F2" stop-opacity="0.1774" />
			<stop offset="0.2" stop-color="#2EC2F2" stop-opacity="0.2545" />
			<stop offset="0.3" stop-color="#2EC2F2" stop-opacity="0.1770" />
			<stop offset="0.4" stop-color="#2EC2F2" stop-opacity="0.0956" />
			<stop offset="0.5" stop-color="#2EC2F2" stop-opacity="0.0917" />
			<stop offset="0.6" stop-color="#2EC2F2" stop-opacity="0.0917" />
			<stop offset="0.7" stop-color="#2EC2F2" stop-opacity="0.0917" />
			<stop offset="0.8" stop-color="#2EC2F2" stop-opacity="0.0917" />
		</linearGradient>
		<linearGradient id="watergrad11" x1="50%" x2="50%" y1="0%" y2="100%">
			<stop offset="0" stop-color="#2EC2F2" stop-opacity="0.1052" />
			<stop offset="0.1" stop-color="#2EC2F2" stop-opacity="0.0806" />
			<stop offset="0.2" stop-color="#2EC2F2" stop-opacity="0.0805" />
			<stop offset="0.3" stop-color="#2EC2F2" stop-opacity="0.0861" />
			<stop offset="0.4" stop-color="#2EC2F2" stop-opacity="0.0917" />
			<stop offset="0.5" stop-color="#2EC2F2" stop-opacity="0.0917" />
			<stop offset="0.6" stop-color="#2EC2F2" stop-opacity="0.0917" />
			<stop offset="0.7" stop-color="#2EC2F2" stop-opacity="0.0917" />
			<stop offset="0.8" stop-color="#2EC2F2" stop-opacity="0.0917" />
		</linearGradient>
	</defs>
	<rect fill="white" height="1536" stroke="none" width="2048" x="0" y="0" />
	<svg height="614.4" id="month_01" preserveAspectRatio="none" viewBox="-20 0 40 614.4" width="152.064" x="163.84" y="814.08">
		<rect fill="#C8C8C8" height="614.4" stroke="none" width="40" x="-20" y="0" />
		<rect fill="url(#watergrad0)" height="614.4" stroke="none" width="40" x="-20" y="0" />
		<rect fill="#D97B27" height="59.699705856" stroke="none" width="40" x="-20" y="0" />
		<line fill="none" stroke="#6F6F6F" stroke-dasharray="40 20" x1="0" x2="0" y1="0" y2="614.4" />
		<polyline fill="none" points="-16.49197,0 -15.6459,61.44 -15.08901,122.88 -14.82755,153.6 -14.53147,184.32 -13.88946,245.76 -13.21411,307.2 -12.57191,368.64 -11.38772,491.52 -10.33703,614.4 " stroke="url(#tempgrad)" stroke-width="2" />
		<line fill="none" stroke="black" stroke-width="8" x1="-20" x2="20" y1="0" y2="0" />
	</svg>
	<rect fill="url(#snowpat)" height="307.13493504" stroke="none" width="152.064" x="163.84" y="506.94506496" />
	<rect fill="#FF5000" height="0" stroke="none" width="20.9743448275862" x="179.0464" y="814.08" />
	<rect fill="#FF9A00" height="0" stroke="none" width="20.9743448275862" x="204.215613793103" y="814.08" />
	<rect fill="#FFCB00" height="0" stroke="none" width="20.9743448275862" x="229.384827586207" y="814.08" />
	<rect fill="#84FF00" height="0" stroke="none" width="20.9743448275862" x="254.55404137931" y="814.08" />
	<rect fill="#00FFAE" height="0" stroke="none" width="20.9743448275862" x="279.723255172414" y="814.08" />
	<text baseline-shift="-150%" text-anchor="middle" x="239.872" y="40.96">Jan
	</text>
	<svg height="614.4" id="month_02" preserveAspectRatio="none" viewBox="-20 0 40 614.4" width="152.064" x="317.44" y="814.08">
		<rect fill="#C8C8C8" height="614.4" stroke="none" width="40" x="-20" y="0" />
		<rect fill="url(#watergrad1)" height="614.4" stroke="none" width="40" x="-20" y="0" />
		<rect fill="#D97B27" height="61.24259328" stroke="none" width="40" x="-20" y="0" />
		<line fill="none" stroke="#6F6F6F" stroke-dasharray="40 20" x1="0" x2="0" y1="0" y2="614.4" />
		<polyline fill="none" points="-17.92009,0 -17.26543,61.44 -16.81948,122.88 -16.6062,153.6 -16.35686,184.32 -15.80727,245.76 -15.21298,307.2 -14.63232,368.64 -13.52048,491.52 -12.48521,614.4 " stroke="url(#tempgrad)" stroke-width="2" />
		<line fill="none" stroke="black" stroke-width="8" x1="-20" x2="20" y1="0" y2="0" />
	</svg>
	<rect fill="url(#snowpat)" height="361.78630656" stroke="none" width="152.064" x="317.44" y="452.29369344" />
	<rect fill="#FF5000" height="0" stroke="none" width="20.9743448275862" x="332.6464" y="814.08" />
	<rect fill="#FF9A00" height="0" stroke="none" width="20.9743448275862" x="357.815613793103" y="814.08" />
	<rect fill="#FFCB00" height="0" stroke="none" width="20.9743448275862" x="382.984827586207" y="814.08" />
	<rect fill="#84FF00" height="0" stroke="none" width="20.9743448275862" x="408.15404137931" y="814.08" />
	<rect fill="#00FFAE" height="0" stroke="none" width="20.9743448275862" x="433.323255172414" y="814.08" />
	<line fill="none" stroke="#6F6F6F" stroke-width="6" x1="316.672" x2="316.672" y1="1428.48" y2="40.96" />
	<text baseline-shift="-150%" text-anchor="middle" x="393.472" y="40.96">Feb
	</text>
	<svg height="614.4" id="month_03" preserveAspectRatio="none" viewBox="-20 0 40 614.4" width="152.064" x="471.04" y="814.08">
		<rect fill="#C8C8C8" height="614.4" stroke="none" width="40" x="-20" y="0" />
		<rect fill="url(#watergrad2)" height="614.4" stroke="none" width="40" x="-20" y="0" />
		<rect fill="#D97B27" height="62.88666624" stroke="none" width="40" x="-20" y="0" />
		<line fill="none" stroke="#6F6F6F" stroke-dasharray="40 20" x1="0" x2="0" y1="0" y2="614.4" />
		<polyline fill="none" points="-16.28075,0 -16.03889,61.44 -15.85785,122.88 -15.76432,153.6 -15.64427,184.32 -15.36729,245.76 -15.04516,307.2 -14.70823,368.64 -14.00336,491.52 -13.27718,614.4 " stroke="url(#tempgrad)" stroke-width="2" />
		<line fill="none" stroke="black" stroke-width="8" x1="-20" x2="20" y1="0" y2="0" />
	</svg>
	<rect fill="url(#snowpat)" height="408.32544768" stroke="none" width="152.064" x="471.04" y="405.75455232" />
	<rect fill="#FF5000" height="0" stroke="none" width="20.9743448275862" x="486.2464" y="814.08" />
	<rect fill="#FF9A00" height="0" stroke="none" width="20.9743448275862" x="511.415613793103" y="814.08" />
	<rect fill="#FFCB00" height="0" stroke="none" width="20.9743448275862" x="536.584827586207" y="814.08" />
	<rect fill="#84FF00" height="0" stroke="none" width="20.9743448275862" x="561.75404137931" y="814.08" />
	<rect fill="#00FFAE" height="0" stroke="none" width="20.9743448275862" x="586.923255172414" y="814.08" />
	<line fill="none" stroke="#6F6F6F" stroke-width="6" x1="470.272" x2="470.272" y1="1428.48" y2="40.96" />
	<text baseline-shift="-150%" text-anchor="middle" x="547.072" y="40.96">Mar
	</text>
	<svg height="614.4" id="month_04" preserveAspectRatio="none" viewBox="-20 0 40 614.4" width="152.064" x="624.64" y="814.08">
		<rect fill="#C8C8C8" height="614.4" stroke="none" width="40" x="-20" y="0" />
		<rect fill="url(#watergrad3)" height="614.4" stroke="none" width="40" x="-20" y="0" />
		<rect fill="#D97B27" height="64.745472" stroke="none" width="40" x="-20" y="0" />
		<line fill="none" stroke="#6F6F6F" stroke-dasharray="40 20" x1="0" x2="0" y1="0" y2="614.4" />
		<polyline fill="none" points="-13.54076,0 -13.5933,61.44 -13.6091,122.88 -13.60754,153.6 -13.59195,184.32 -13.54201,245.76 -13.45977,307.2 -13.35196,368.64 -13.07148,491.52 -12.72213,614.4 " stroke="url(#tempgrad)" stroke-width="2" />
		<line fill="none" stroke="black" stroke-width="8" x1="-20" x2="20" y1="0" y2="0" />
	</svg>
	<rect fill="url(#snowpat)" height="393.52602624" stroke="none" width="152.064" x="624.64" y="420.55397376" />
	<rect fill="#FF5000" height="0" stroke="none" width="20.9743448275862" x="639.8464" y="814.08" />
	<rect fill="#FF9A00" height="0" stroke="none" width="20.9743448275862" x="665.015613793104" y="814.08" />
	<rect fill="#FFCB00" height="0" stroke="none" width="20.9743448275862" x="690.184827586207" y="814.08" />
	<rect fill="#84FF00" height="0" stroke="none" width="20.9743448275862" x="715.354041379311" y="814.08" />
	<rect fill="#00FFAE" height="0" stroke="none" width="20.9743448275862" x="740.523255172414" y="814.08" />
	<line fill="none" stroke="#6F6F6F" stroke-width="6" x1="623.872" x2="623.872" y1="1428.48" y2="40.96" />
	<text baseline-shift="-150%" text-anchor="middle" x="700.672" y="40.96">Apr
	</text>
	<svg height="614.4" id="month_05" preserveAspectRatio="none" viewBox="-20 0 40 614.4" width="152.064" x="778.24" y="814.08">
		<rect fill="#C8C8C8" height="614.4" stroke="none" width="40" x="-20" y="0" />
		<rect fill="url(#watergrad4)" height="614.4" stroke="none" width="40" x="-20" y="0" />
		<rect fill="#D97B27" height="65.78307072" stroke="none" width="40" x="-20" y="0" />
		<line fill="none" stroke="#6F6F6F" stroke-dasharray="40 20" x1="0" x2="0" y1="0" y2="614.4" />
		<polyline fill="none" points="-8.104147,0 -8.776087,61.44 -9.183935,122.88 -9.360007,153.6 -9.534868,184.32 -9.887073,245.76 -10.20899,307.2 -10.4688,368.64 -10.82788,491.52 -11.01037,614.4 " stroke="url(#tempgrad)" stroke-width="2" />
		<line fill="none" stroke="black" stroke-width="8" x1="-20" x2="20" y1="0" y2="0" />
	</svg>
	<rect fill="url(#snowpat)" height="242.04828672" stroke="none" width="152.064" x="778.24" y="572.03171328" />
	<rect fill="#FF5000" height="0" stroke="none" width="20.9743448275862" x="793.4464" y="814.08" />
	<rect fill="#FF9A00" height="0" stroke="none" width="20.9743448275862" x="818.615613793104" y="814.08" />
	<rect fill="#FFCB00" height="0" stroke="none" width="20.9743448275862" x="843.784827586207" y="814.08" />
	<rect fill="#84FF00" height="0" stroke="none" width="20.9743448275862" x="868.954041379311" y="814.08" />
	<rect fill="#00FFAE" height="0" stroke="none" width="20.9743448275862" x="894.123255172414" y="814.08" />
	<line fill="none" stroke="#6F6F6F" stroke-width="6" x1="777.472" x2="777.472" y1="1428.48" y2="40.96" />
	<text baseline-shift="-150%" text-anchor="middle" x="854.272" y="40.96">May
	</text>
	<svg height="614.4" id="month_06" preserveAspectRatio="none" viewBox="-20 0 40 614.4" width="152.064" x="931.84" y="814.08">
		<rect fill="#C8C8C8" height="614.4" stroke="none" width="40" x="-20" y="0" />
		<rect fill="url(#watergrad5)" height="614.4" stroke="none" width="40" x="-20" y="0" />
		<line fill="none" stroke="#6F6F6F" stroke-dasharray="40 20" x1="0" x2="0" y1="0" y2="614.4" />
		<polyline fill="none" points="2.068815,0 -0.7200201,61.44 -1.527673,122.88 -1.785953,153.6 -2.162118,184.32 -2.982517,245.76 -3.832346,307.2 -4.605731,368.64 -5.932383,491.52 -6.986895,614.4 " stroke="url(#tempgrad)" stroke-width="2" />
		<line fill="none" stroke="black" stroke-width="8" x1="-20" x2="20" y1="0" y2="0" />
	</svg>
	<rect fill="url(#snowpat)" height="61.227546624" stroke="none" width="152.064" x="931.84" y="752.852453376" />
	<rect fill="#2EC2F2" height="15.37668096" stroke="none" width="152.064" x="931.84" y="798.70331904" />
	<rect fill="#FF5000" height="0" stroke="none" width="20.9743448275862" x="947.0464" y="814.08" />
	<rect fill="#FF9A00" height="0" stroke="none" width="20.9743448275862" x="972.215613793104" y="814.08" />
	<rect fill="#FFCB00" height="0" stroke="none" width="20.9743448275862" x="997.384827586207" y="814.08" />
	<rect fill="#84FF00" height="40.07805696" stroke="none" width="20.9743448275862" x="1022.55404137931" y="774.00194304" />
	<rect fill="#00FFAE" height="53.14120704" stroke="none" width="20.9743448275862" x="1047.72325517241" y="760.93879296" />
	<line fill="none" stroke="#6F6F6F" stroke-width="6" x1="931.072" x2="931.072" y1="1428.48" y2="40.96" />
	<text baseline-shift="-150%" text-anchor="middle" x="1007.872" y="40.96">Jun
	</text>
	<svg height="614.4" id="month_07" preserveAspectRatio="none" viewBox="-20 0 40 614.4" width="152.064" x="1085.44" y="814.08">
		<rect fill="#C8C8C8" height="614.4" stroke="none" width="40" x="-20" y="0" />
		<rect fill="url(#watergrad6)" height="614.4" stroke="none" width="40" x="-20" y="0" />
		<rect fill="#D97B27" height="30.667382784" stroke="none" width="40" x="-20" y="0" />
		<line fill="none" stroke="#6F6F6F" stroke-dasharray="40 20" x1="0" x2="0" y1="0" y2="614.4" />
		<polyline fill="none" points="8.431706,0 3.834321,61.44 0.766398,122.88 0,153.6 -0.06138787,184.32 -0.3838044,245.76 -0.9340519,307.2 -1.506225,368.64 -2.605392,491.52 -3.626664,614.4 " stroke="url(#tempgrad)" stroke-width="2" />
		<line fill="none" stroke="black" stroke-width="8" x1="-20" x2="20" y1="0" y2="0" />
	</svg>
	<rect fill="#FF5000" height="0" stroke="none" width="20.9743448275862" x="1100.6464" y="814.08" />
	<rect fill="#FF9A00" height="0" stroke="none" width="20.9743448275862" x="1125.8156137931" y="814.08" />
	<rect fill="#FFCB00" height="0" stroke="none" width="20.9743448275862" x="1150.98482758621" y="814.08" />
	<rect fill="#84FF00" height="399.48231168" stroke="none" width="20.9743448275862" x="1176.15404137931" y="414.59768832" />
	<rect fill="#00FFAE" height="306.01880064" stroke="none" width="20.9743448275862" x="1201.32325517241" y="508.06119936" />
	<line fill="none" stroke="#6F6F6F" stroke-width="6" x1="1084.672" x2="1084.672" y1="1428.48" y2="40.96" />
	<text baseline-shift="-150%" text-anchor="middle" x="1161.472" y="40.96">Jul
	</text>
	<svg height="614.4" id="month_08" preserveAspectRatio="none" viewBox="-20 0 40 614.4" width="152.064" x="1239.04" y="814.08">
		<rect fill="#C8C8C8" height="614.4" stroke="none" width="40" x="-20" y="0" />
		<rect fill="url(#watergrad7)" height="614.4" stroke="none" width="40" x="-20" y="0" />
		<rect fill="#D97B27" height="82.75808256" stroke="none" width="40" x="-20" y="0" />
		<line fill="none" stroke="#6F6F6F" stroke-dasharray="40 20" x1="0" x2="0" y1="0" y2="614.4" />
		<polyline fill="none" points="7.128063,0 4.722985,61.44 2.217195,122.88 0.9516531,153.6 0.4758265,184.32 -0.111212,245.76 -0.4304387,307.2 -0.8446597,368.64 -1.657616,491.52 -2.440847,614.4 " stroke="url(#tempgrad)" stroke-width="2" />
		<line fill="none" stroke="black" stroke-width="8" x1="-20" x2="20" y1="0" y2="0" />
	</svg>
	<rect fill="#FF5000" height="0" stroke="none" width="20.9743448275862" x="1254.2464" y="814.08" />
	<rect fill="#FF9A00" height="0" stroke="none" width="20.9743448275862" x="1279.4156137931" y="814.08" />
	<rect fill="#FFCB00" height="0" stroke="none" width="20.9743448275862" x="1304.58482758621" y="814.08" />
	<rect fill="#84FF00" height="216.8946432" stroke="none" width="20.9743448275862" x="1329.75404137931" y="597.1853568" />
	<rect fill="#00FFAE" height="182.86834176" stroke="none" width="20.9743448275862" x="1354.92325517241" y="631.21165824" />
	<line fill="none" stroke="#6F6F6F" stroke-width="6" x1="1238.272" x2="1238.272" y1="1428.48" y2="40.96" />
	<text baseline-shift="-150%" text-anchor="middle" x="1315.072" y="40.96">Aug
	</text>
	<svg height="614.4" id="month_09" preserveAspectRatio="none" viewBox="-20 0 40 614.4" width="152.064" x="1392.64" y="814.08">
		<rect fill="#C8C8C8" height="614.4" stroke="none" width="40" x="-20" y="0" />
		<rect fill="url(#watergrad8)" height="614.4" stroke="none" width="40" x="-20" y="0" />
		<rect fill="#D97B27" height="66.61982208" stroke="none" width="40" x="-20" y="0" />
		<line fill="none" stroke="#6F6F6F" stroke-dasharray="40 20" x1="0" x2="0" y1="0" y2="614.4" />
		<polyline fill="none" points="2.447718,0 1.886415,61.44 1.1305,122.88 0.7362685,153.6 0.3690543,184.32 -0.1575948,245.76 -0.4638342,307.2 -0.7593132,368.64 -1.358685,491.52 -1.960834,614.4 " stroke="url(#tempgrad)" stroke-width="2" />
		<line fill="none" stroke="black" stroke-width="8" x1="-20" x2="20" y1="0" y2="0" />
	</svg>
	<rect fill="url(#snowpat)" height="2.3319392256" stroke="none" width="152.064" x="1392.64" y="811.7480607744" />
	<rect fill="#FF5000" height="0" stroke="none" width="20.9743448275862" x="1407.8464" y="814.08" />
	<rect fill="#FF9A00" height="0" stroke="none" width="20.9743448275862" x="1433.0156137931" y="814.08" />
	<rect fill="#FFCB00" height="0" stroke="none" width="20.9743448275862" x="1458.18482758621" y="814.08" />
	<rect fill="#84FF00" height="12.218245632" stroke="none" width="20.9743448275862" x="1483.35404137931" y="801.861754368" />
	<rect fill="#00FFAE" height="19.4926464" stroke="none" width="20.9743448275862" x="1508.52325517241" y="794.5873536" />
	<line fill="none" stroke="#6F6F6F" stroke-width="6" x1="1391.872" x2="1391.872" y1="1428.48" y2="40.96" />
	<text baseline-shift="-150%" text-anchor="middle" x="1468.672" y="40.96">Sep
	</text>
	<svg height="614.4" id="month_10" preserveAspectRatio="none" viewBox="-20 0 40 614.4" width="152.064" x="1546.24" y="814.08">
		<rect fill="#C8C8C8" height="614.4" stroke="none" width="40" x="-20" y="0" />
		<rect fill="url(#watergrad9)" height="614.4" stroke="none" width="40" x="-20" y="0" />
		<rect fill="#D97B27" height="55.248592896" stroke="none" width="40" x="-20" y="0" />
		<line fill="none" stroke="#6F6F6F" stroke-dasharray="40 20" x1="0" x2="0" y1="0" y2="614.4" />
		<polyline fill="none" points="-2.531726,0 -0.6182639,61.44 -0.002074201,122.88 0,153.6 -0.0007746992,184.32 -0.2937793,245.76 -0.7050101,307.2 -0.9433303,368.64 -1.42204,491.52 -1.901379,614.4 " stroke="url(#tempgrad)" stroke-width="2" />
		<line fill="none" stroke="black" stroke-width="8" x1="-20" x2="20" y1="0" y2="0" />
	</svg>
	<rect fill="url(#snowpat)" height="78.3707136" stroke="none" width="152.064" x="1546.24" y="735.7092864" />
	<rect fill="#FF5000" height="0" stroke="none" width="20.9743448275862" x="1561.4464" y="814.08" />
	<rect fill="#FF9A00" height="0" stroke="none" width="20.9743448275862" x="1586.6156137931" y="814.08" />
	<rect fill="#FFCB00" height="0" stroke="none" width="20.9743448275862" x="1611.78482758621" y="814.08" />
	<rect fill="#84FF00" height="0" stroke="none" width="20.9743448275862" x="1636.95404137931" y="814.08" />
	<rect fill="#00FFAE" height="0" stroke="none" width="20.9743448275862" x="1662.12325517241" y="814.08" />
	<line fill="none" stroke="#6F6F6F" stroke-width="6" x1="1545.472" x2="1545.472" y1="1428.48" y2="40.96" />
	<text baseline-shift="-150%" text-anchor="middle" x="1622.272" y="40.96">Oct
	</text>
	<svg height="614.4" id="month_11" preserveAspectRatio="none" viewBox="-20 0 40 614.4" width="152.064" x="1699.84" y="814.08">
		<rect fill="#C8C8C8" height="614.4" stroke="none" width="40" x="-20" y="0" />
		<rect fill="url(#watergrad10)" height="614.4" stroke="none" width="40" x="-20" y="0" />
		<rect fill="#D97B27" height="56.762062848" stroke="none" width="40" x="-20" y="0" />
		<line fill="none" stroke="#6F6F6F" stroke-dasharray="40 20" x1="0" x2="0" y1="0" y2="614.4" />
		<polyline fill="none" points="-7.427945,0 -5.734347,61.44 -4.374658,122.88 -3.694027,153.6 -3.774913,184.32 -3.694853,245.76 -3.390944,307.2 -3.144094,368.64 -2.858838,491.52 -2.788997,614.4 " stroke="url(#tempgrad)" stroke-width="2" />
		<line fill="none" stroke="black" stroke-width="8" x1="-20" x2="20" y1="0" y2="0" />
	</svg>
	<rect fill="url(#snowpat)" height="172.14615552" stroke="none" width="152.064" x="1699.84" y="641.93384448" />
	<rect fill="#FF5000" height="0" stroke="none" width="20.9743448275862" x="1715.0464" y="814.08" />
	<rect fill="#FF9A00" height="0" stroke="none" width="20.9743448275862" x="1740.2156137931" y="814.08" />
	<rect fill="#FFCB00" height="0" stroke="none" width="20.9743448275862" x="1765.38482758621" y="814.08" />
	<rect fill="#84FF00" height="0" stroke="none" width="20.9743448275862" x="1790.55404137931" y="814.08" />
	<rect fill="#00FFAE" height="0" stroke="none" width="20.9743448275862" x="1815.72325517241" y="814.08" />
	<line fill="none" stroke="#6F6F6F" stroke-width="6" x1="1699.072" x2="1699.072" y1="1428.48" y2="40.96" />
	<text baseline-shift="-150%" text-anchor="middle" x="1775.872" y="40.96">Nov
	</text>
	<svg height="614.4" id="month_12" preserveAspectRatio="none" viewBox="-20 0 40 614.4" width="152.064" x="1853.44" y="814.08">
		<rect fill="#C8C8C8" height="614.4" stroke="none" width="40" x="-20" y="0" />
		<rect fill="url(#watergrad11)" height="614.4" stroke="none" width="40" x="-20" y="0" />
		<rect fill="#D97B27" height="58.272958464" stroke="none" width="40" x="-20" y="0" />
		<line fill="none" stroke="#6F6F6F" stroke-dasharray="40 20" x1="0" x2="0" y1="0" y2="614.4" />
		<polyline fill="none" points="-13.57837,0 -12.58093,61.44 -11.9315,122.88 -11.63156,153.6 -11.29971,184.32 -10.59015,245.76 -9.863221,307.2 -9.19342,368.64 -8.024269,491.52 -7.075616,614.4 " stroke="url(#tempgrad)" stroke-width="2" />
		<line fill="none" stroke="black" stroke-width="8" x1="-20" x2="20" y1="0" y2="0" />
	</svg>
	<rect fill="url(#snowpat)" height="245.4703104" stroke="none" width="152.064" x="1853.44" y="568.6096896" />
	<rect fill="#FF5000" height="0" stroke="none" width="20.9743448275862" x="1868.6464" y="814.08" />
	<rect fill="#FF9A00" height="0" stroke="none" width="20.9743448275862" x="1893.8156137931" y="814.08" />
	<rect fill="#FFCB00" height="0" stroke="none" width="20.9743448275862" x="1918.98482758621" y="814.08" />
	<rect fill="#84FF00" height="0" stroke="none" width="20.9743448275862" x="1944.15404137931" y="814.08" />
	<rect fill="#00FFAE" height="0" stroke="none" width="20.9743448275862" x="1969.32325517241" y="814.08" />
	<line fill="none" stroke="#6F6F6F" stroke-width="6" x1="1852.672" x2="1852.672" y1="1428.48" y2="40.96" />
	<text baseline-shift="-150%" text-anchor="middle" x="1929.472" y="40.96">Dec
	</text>
	<rect fill="white" height="194.4" stroke="none" width="792" x="189.533572413793" y="115.68" />
	<polyline fill="none" opacity="0.75" points="189.533572413793,808.96 189.533572413793,140.88 381.696,140.88 " stroke="#FF5000" stroke-width="6" />
	<text baseline-shift="-45%" fill="#FF5000" font-weight="bold" stroke="none" x="391.936" y="140.88">Boreal evergreen needleleaf tree
	</text>
	<polyline fill="none" opacity="0.75" points="214.702786206897,808.96 214.702786206897,176.88 381.696,176.88 " stroke="#FF9A00" stroke-width="6" />
	<text baseline-shift="-45%" fill="#FF9A00" font-weight="bold" stroke="none" x="391.936" y="176.88">Boreal summergreen broadleaf tree
	</text>
	<polyline fill="none" opacity="0.75" points="239.872,808.96 239.872,212.88 381.696,212.88 " stroke="#FFCB00" stroke-width="6" />
	<text baseline-shift="-45%" fill="#FFCB00" font-weight="bold" stroke="none" x="391.936" y="212.88">C3 grass
	</text>
	<polyline fill="none" opacity="0.75" points="265.041213793103,808.96 265.041213793103,248.88 381.696,248.88 " stroke="#84FF00" stroke-width="6" />
	<text baseline-shift="-45%" fill="#84FF00" font-weight="bold" stroke="none" x="391.936" y="248.88">Flood-tolerant graminoid
	</text>
	<polyline fill="none" opacity="0.75" points="290.210427586207,808.96 290.210427586207,284.88 381.696,284.88 " stroke="#00FFAE" stroke-width="6" />
	<text baseline-shift="-45%" fill="#00FFAE" font-weight="bold" stroke="none" x="391.936" y="284.88">Peatmoss
	</text>
	<g id="temp_scale">
		<g id="temp_scale_lines" style="fill: none; stroke: black">
			<line stroke-width="4" x1="239.872" x2="239.872" y1="1438.72" y2="1448.96" />
		</g>
		<g id="temp_scale_labels" style="fill: black; stroke: none">
			<text baseline-shift="-60%" text-anchor="middle" x="163.84" y="1459.2">-20
			</text>
			<text baseline-shift="-60%" text-anchor="middle" x="239.872" y="1459.2">0
			</text>
			<text baseline-shift="-60%" text-anchor="middle" x="315.904" y="1459.2">20
			</text>
		</g>
	</g>
	<polyline fill="none" points="163.84,1448.96 163.84,1438.72 315.904,1438.72 315.904,1448.96 " stroke="black" stroke-width="4" />
	<g id="depth_scale">
		<g id="depth_scale_lines" style="fill: none; stroke: black">
			<line stroke-width="4" x1="153.6" x2="143.36" y1="1274.88" y2="1274.88" />
			<line stroke-width="4" x1="153.6" x2="143.36" y1="1121.28" y2="1121.28" />
			<line stroke-width="4" x1="153.6" x2="143.36" y1="967.68" y2="967.68" />
			<line stroke-width="4" x1="153.6" x2="143.36" y1="814.08" y2="814.08" />
			<line stroke-width="4" x1="153.6" x2="143.36" y1="660.48" y2="660.48" />
			<line stroke-width="4" x1="153.6" x2="143.36" y1="506.88" y2="506.88" />
		</g>
		<g id="depth_scale_labels" style="fill: black; stroke: none">
			<text baseline-shift="-50%" text-anchor="end" x="133.12" y="1428.48">-100
			</text>
			<text baseline-shift="-50%" text-anchor="end" x="133.12" y="1274.88">-75
			</text>
			<text baseline-shift="-50%" text-anchor="end" x="133.12" y="1121.28">-50
			</text>
			<text baseline-shift="-50%" text-anchor="end" x="133.12" y="967.68">-25
			</text>
			<text baseline-shift="-50%" text-anchor="end" x="133.12" y="814.08">0
			</text>
			<text baseline-shift="-50%" text-anchor="end" x="133.12" y="660.48">25
			</text>
			<text baseline-shift="-50%" text-anchor="end" x="133.12" y="506.88">50
			</text>
			<text baseline-shift="-50%" text-anchor="end" x="133.12" y="353.28">75
			</text>
		</g>
	</g>
	<polyline fill="none" points="143.36,1428.48 153.6,1428.48 153.6,353.28 143.36,353.28 " stroke="black" stroke-width="4" />
	<g id="npp_scale">
		<g id="npp_scale_lines" style="fill: none; stroke: black">
			<line stroke-width="4" x1="81.92" x2="71.68" y1="698.88" y2="698.88" />
			<line stroke-width="4" x1="81.92" x2="71.68" y1="583.68" y2="583.68" />
			<line stroke-width="4" x1="81.92" x2="71.68" y1="468.48" y2="468.48" />
			<line stroke-width="4" x1="81.92" x2="71.68" y1="353.28" y2="353.28" />
			<line stroke-width="4" x1="81.92" x2="71.68" y1="238.08" y2="238.08" />
		</g>
		<g id="npp_scale_labels" style="fill: black; stroke: none">
			<text baseline-shift="-50%" text-anchor="end" x="61.44" y="814.08">0
			</text>
			<text baseline-shift="-50%" text-anchor="end" x="61.44" y="698.88">25
			</text>
			<text baseline-shift="-50%" text-anchor="end" x="61.44" y="583.68">50
			</text>
			<text baseline-shift="-50%" text-anchor="end" x="61.44" y="468.48">75
			</text>
			<text baseline-shift="-50%" text-anchor="end" x="61.44" y="353.28">100
			</text>
			<text baseline-shift="-50%" text-anchor="end" x="61.44" y="238.08">125
			</text>
			<text baseline-shift="-50%" text-anchor="end" x="61.44" y="122.88">150
			</text>
		</g>
	</g>
	<polyline fill="none" points="71.68,814.08 81.92,814.08 81.92,122.88 71.68,122.88 " stroke="black" stroke-width="4" />
	<text text-anchor="middle" x="239.872" y="1510.4">Soil temperature (&#176;C)
	</text>
	<text x="20.48" y="1182.72">Soil
	</text>
	<text x="20.48" y="1218.72">depth
	</text>
	<text x="20.48" y="1254.72">(cm)
	</text>
	<text x="20.48" y="50.8799999999999">Monthly NPP
	</text>
	<text x="20.48" y="86.8799999999999">
		<tspan >(gC/m
		</tspan>
		<tspan dx="-10" dy="-10" font-size="75%">2
		</tspan>
		<tspan dx="-5" dy="10">)
		</tspan>
	</text>
	<text font-family="serif" font-size="150%" text-anchor="middle" x="1024" y="1500">(b) Siberia, 69.75&#176;N 67.25&#176;E
	</text><!-- 
	Generated using the Perl SVG Module V2.33
	by Ronan Oger
	Info: http://www.roasp.com/
 -->
</svg>
