<?xml version="1.0" encoding="UTF-8" standalone="yes"?>
<!DOCTYPE svg PUBLIC "-//W3C//DTD SVG 1.0//EN" "http://www.w3.org/TR/2001/REC-SVG-20010904/DTD/svg10.dtd">
<svg font-family="sans-serif" font-size="32.4" height="1536" width="2048" xmlns="http://www.w3.org/2000/svg" xmlns:xlink="http://www.w3.org/1999/xlink">
	<defs >
		<linearGradient gradientUnits="userSpaceOnUse" id="tempgrad" x1="-20" x2="20" y1="50%" y2="50%">
			<stop offset="0.00" stop-color="#0000FF" />
			<stop offset="0.40" stop-color="#0000FF" />
			<stop offset="0.50" stop-color="#808080" />
			<stop offset="0.60" stop-color="#FF0000" />
			<stop offset="1.00" stop-color="#FF0000" />
		</linearGradient>
		<pattern height="150" id="snowpat" patternUnits="userSpaceOnUse" viewBox="0 0 200 200" width="150">
			<g id="snowpatg">
				<rect fill="#C8C8C8" height="200" stroke="none" width="200" x="0" y="0" />
				<path d="M 55.46565,56.1454 L 56.47795,55.5146 L 64.12445,57.40925 L 65.75405,64.8616 L 64.7418,65.4924 L 57.34595,63.85035 L 55.46565,56.1454 z M 47.1264,58.03955 L 48.31605,58.07575 L 50.5109,65.6958 L 44.9207,70.844 L 43.7311,70.80785 L 41.44445,63.5329 L 47.1264,58.03955 z M 58.39365,48.31035 L 58.10755,47.2344 L 63.5592,41.50905 L 70.779,43.81315 L 71.0651,44.8891 L 65.9559,50.522 L 58.39365,48.31035 z M 51.684,41.92425 L 52.87365,41.9605 L 58.5556,36.4672 L 56.26895,29.19225 L 55.0793,29.156 L 49.4891,34.3042 L 51.684,41.92425 z M 43.5221,44.4853 L 44.5344,43.8546 L 42.6541,36.14965 L 35.25825,34.5076 L 34.24595,35.1383 L 35.87555,42.59065 L 43.5221,44.4853 z M 29.22105,56.18695 L 28.9349,55.1108 L 34.0441,49.4779 L 41.60635,51.68955 L 41.8925,52.7657 L 36.44085,58.49105 L 29.22105,56.18695 z M 16.20715,59.70065 L 15.921,58.62455 L 26.10575,47.9226 L 18.5435,45.7109 L 5.2765,57.24505 L 0.4204,54.85755 L 7.9998,42.63985 L 0.68825,39.99065 L 0,37.4025 L 0.40055,35.89615 L 2.28085,34.0015 L 9.9274,35.3909 L 9.426,20.99145 L 14.8162,21.3704 L 20.58245,38.04345 L 28.229,39.9381 L 24.7191,25.53865 L 25.7314,24.90795 L 40.02165,28.44465 L 38.14135,20.7397 L 21.59475,14.9294 L 21.21865,9.498 L 35.50895,10.00325 L 34.13005,2.2983 L 36.01035,0.4036 L 37.50525,0 L 40.0738,0.6935 L 42.7029,8.0609 L 54.82795,0.4236 L 57.19735,5.3168 L 45.7507,18.6852 L 47.94555,26.30525 L 58.56635,16.0426 L 59.756,16.0789 L 63.8615,30.31755 L 69.54345,24.82425 L 66.26385,7.4798 L 70.7439,4.43595 L 77.4548,17.15885 L 83.38745,12.1031 L 85.956,12.7966 L 87.0503,13.8993 L 87.73855,16.48745 L 82.72115,22.46545 L 95.3476,29.22765 L 92.3268,33.74185 L 75.1139,30.4372 L 69.6622,36.1626 L 83.7929,40.29945 L 84.079,41.3754 L 73.89425,52.07735 L 81.4565,54.289 L 94.7235,42.75485 L 99.5796,45.14235 L 92.0002,57.36005 L 99.31175,60.00925 L 100,62.5974 L 99.59945,64.10375 L 97.71915,65.9984 L 90.0726,64.609 L 90.574,79.00845 L 85.1838,78.6295 L 79.41755,61.95645 L 71.771,60.0618 L 75.2809,74.46125 L 74.26865,75.09205 L 59.97835,71.55535 L 61.85865,79.2603 L 78.4053,85.0706 L 78.78135,90.502 L 64.4911,89.99675 L 65.86995,97.7017 L 63.98965,99.5964 L 62.49475,100 L 59.92625,99.3065 L 57.2971,91.9391 L 45.1721,99.57635 L 42.80265,94.6832 L 54.24935,81.3148 L 52.05445,73.69475 L 41.43365,83.95735 L 40.244,83.9212 L 36.13855,69.68255 L 30.4566,75.17585 L 33.73615,92.5203 L 29.25615,95.56415 L 22.54525,82.8412 L 16.6126,87.897 L 14.04405,87.2035 L 12.9497,86.1008 L 12.2615,83.5126 L 17.2789,77.53465 L 4.65245,70.77245 L 7.67325,66.2582 L 24.88615,69.56285 L 30.3378,63.8375 L 16.20715,59.70065 z " fill="white" fill-rule="evenodd" stroke="none" />
				<path d="M 55.46565,56.1454 L 56.47795,55.5146 L 64.12445,57.40925 L 65.75405,64.8616 L 64.7418,65.4924 L 57.34595,63.85035 L 55.46565,56.1454 z M 47.1264,58.03955 L 48.31605,58.07575 L 50.5109,65.6958 L 44.9207,70.844 L 43.7311,70.80785 L 41.44445,63.5329 L 47.1264,58.03955 z M 58.39365,48.31035 L 58.10755,47.2344 L 63.5592,41.50905 L 70.779,43.81315 L 71.0651,44.8891 L 65.9559,50.522 L 58.39365,48.31035 z M 51.684,41.92425 L 52.87365,41.9605 L 58.5556,36.4672 L 56.26895,29.19225 L 55.0793,29.156 L 49.4891,34.3042 L 51.684,41.92425 z M 43.5221,44.4853 L 44.5344,43.8546 L 42.6541,36.14965 L 35.25825,34.5076 L 34.24595,35.1383 L 35.87555,42.59065 L 43.5221,44.4853 z M 29.22105,56.18695 L 28.9349,55.1108 L 34.0441,49.4779 L 41.60635,51.68955 L 41.8925,52.7657 L 36.44085,58.49105 L 29.22105,56.18695 z M 16.20715,59.70065 L 15.921,58.62455 L 26.10575,47.9226 L 18.5435,45.7109 L 5.2765,57.24505 L 0.4204,54.85755 L 7.9998,42.63985 L 0.68825,39.99065 L 0,37.4025 L 0.40055,35.89615 L 2.28085,34.0015 L 9.9274,35.3909 L 9.426,20.99145 L 14.8162,21.3704 L 20.58245,38.04345 L 28.229,39.9381 L 24.7191,25.53865 L 25.7314,24.90795 L 40.02165,28.44465 L 38.14135,20.7397 L 21.59475,14.9294 L 21.21865,9.498 L 35.50895,10.00325 L 34.13005,2.2983 L 36.01035,0.4036 L 37.50525,0 L 40.0738,0.6935 L 42.7029,8.0609 L 54.82795,0.4236 L 57.19735,5.3168 L 45.7507,18.6852 L 47.94555,26.30525 L 58.56635,16.0426 L 59.756,16.0789 L 63.8615,30.31755 L 69.54345,24.82425 L 66.26385,7.4798 L 70.7439,4.43595 L 77.4548,17.15885 L 83.38745,12.1031 L 85.956,12.7966 L 87.0503,13.8993 L 87.73855,16.48745 L 82.72115,22.46545 L 95.3476,29.22765 L 92.3268,33.74185 L 75.1139,30.4372 L 69.6622,36.1626 L 83.7929,40.29945 L 84.079,41.3754 L 73.89425,52.07735 L 81.4565,54.289 L 94.7235,42.75485 L 99.5796,45.14235 L 92.0002,57.36005 L 99.31175,60.00925 L 100,62.5974 L 99.59945,64.10375 L 97.71915,65.9984 L 90.0726,64.609 L 90.574,79.00845 L 85.1838,78.6295 L 79.41755,61.95645 L 71.771,60.0618 L 75.2809,74.46125 L 74.26865,75.09205 L 59.97835,71.55535 L 61.85865,79.2603 L 78.4053,85.0706 L 78.78135,90.502 L 64.4911,89.99675 L 65.86995,97.7017 L 63.98965,99.5964 L 62.49475,100 L 59.92625,99.3065 L 57.2971,91.9391 L 45.1721,99.57635 L 42.80265,94.6832 L 54.24935,81.3148 L 52.05445,73.69475 L 41.43365,83.95735 L 40.244,83.9212 L 36.13855,69.68255 L 30.4566,75.17585 L 33.73615,92.5203 L 29.25615,95.56415 L 22.54525,82.8412 L 16.6126,87.897 L 14.04405,87.2035 L 12.9497,86.1008 L 12.2615,83.5126 L 17.2789,77.53465 L 4.65245,70.77245 L 7.67325,66.2582 L 24.88615,69.56285 L 30.3378,63.8375 L 16.20715,59.70065 z " fill="white" fill-rule="evenodd" stroke="none" transform="translate(100,90) rotate(15)" />
			</g>
		</pattern>
		<linearGradient id="watergrad0" x1="50%" x2="50%" y1="0%" y2="100%">
			<stop offset="0" stop-color="#2EC2F2" stop-opacity="0.1917" />
			<stop offset="0.1" stop-color="#2EC2F2" stop-opacity="0.1177" />
			<stop offset="0.2" stop-color="#2EC2F2" stop-opacity="0.0887" />
			<stop offset="0.3" stop-color="#2EC2F2" stop-opacity="0.0902" />
			<stop offset="0.4" stop-color="#2EC2F2" stop-opacity="0.0917" />
			<stop offset="0.5" stop-color="#2EC2F2" stop-opacity="0.0917" />
			<stop offset="0.6" stop-color="#2EC2F2" stop-opacity="0.0917" />
			<stop offset="0.7" stop-color="#2EC2F2" stop-opacity="0.0917" />
			<stop offset="0.8" stop-color="#2EC2F2" stop-opacity="0.0917" />
		</linearGradient>
		<linearGradient id="watergrad1" x1="50%" x2="50%" y1="0%" y2="100%">
			<stop offset="0" stop-color="#2EC2F2" stop-opacity="0.1917" />
			<stop offset="0.1" stop-color="#2EC2F2" stop-opacity="0.1177" />
			<stop offset="0.2" stop-color="#2EC2F2" stop-opacity="0.0887" />
			<stop offset="0.3" stop-color="#2EC2F2" stop-opacity="0.0902" />
			<stop offset="0.4" stop-color="#2EC2F2" stop-opacity="0.0917" />
			<stop offset="0.5" stop-color="#2EC2F2" stop-opacity="0.0917" />
			<stop offset="0.6" stop-color="#2EC2F2" stop-opacity="0.0917" />
			<stop offset="0.7" stop-color="#2EC2F2" stop-opacity="0.0917" />
			<stop offset="0.8" stop-color="#2EC2F2" stop-opacity="0.0917" />
		</linearGradient>
		<linearGradient id="watergrad2" x1="50%" x2="50%" y1="0%" y2="100%">
			<stop offset="0" stop-color="#2EC2F2" stop-opacity="0.1917" />
			<stop offset="0.1" stop-color="#2EC2F2" stop-opacity="0.1177" />
			<stop offset="0.2" stop-color="#2EC2F2" stop-opacity="0.0887" />
			<stop offset="0.3" stop-color="#2EC2F2" stop-opacity="0.0902" />
			<stop offset="0.4" stop-color="#2EC2F2" stop-opacity="0.0917" />
			<stop offset="0.5" stop-color="#2EC2F2" stop-opacity="0.0917" />
			<stop offset="0.6" stop-color="#2EC2F2" stop-opacity="0.0917" />
			<stop offset="0.7" stop-color="#2EC2F2" stop-opacity="0.0917" />
			<stop offset="0.8" stop-color="#2EC2F2" stop-opacity="0.0917" />
		</linearGradient>
		<linearGradient id="watergrad3" x1="50%" x2="50%" y1="0%" y2="100%">
			<stop offset="0" stop-color="#2EC2F2" stop-opacity="0.2158" />
			<stop offset="0.1" stop-color="#2EC2F2" stop-opacity="0.1448" />
			<stop offset="0.2" stop-color="#2EC2F2" stop-opacity="0.1052" />
			<stop offset="0.3" stop-color="#2EC2F2" stop-opacity="0.0984" />
			<stop offset="0.4" stop-color="#2EC2F2" stop-opacity="0.0917" />
			<stop offset="0.5" stop-color="#2EC2F2" stop-opacity="0.0917" />
			<stop offset="0.6" stop-color="#2EC2F2" stop-opacity="0.0917" />
			<stop offset="0.7" stop-color="#2EC2F2" stop-opacity="0.0917" />
			<stop offset="0.8" stop-color="#2EC2F2" stop-opacity="0.0917" />
		</linearGradient>
		<linearGradient id="watergrad4" x1="50%" x2="50%" y1="0%" y2="100%">
			<stop offset="0" stop-color="#2EC2F2" stop-opacity="0.7508" />
			<stop offset="0.1" stop-color="#2EC2F2" stop-opacity="0.4134" />
			<stop offset="0.2" stop-color="#2EC2F2" stop-opacity="0.1829" />
			<stop offset="0.3" stop-color="#2EC2F2" stop-opacity="0.1373" />
			<stop offset="0.4" stop-color="#2EC2F2" stop-opacity="0.0917" />
			<stop offset="0.5" stop-color="#2EC2F2" stop-opacity="0.0917" />
			<stop offset="0.6" stop-color="#2EC2F2" stop-opacity="0.0917" />
			<stop offset="0.7" stop-color="#2EC2F2" stop-opacity="0.0917" />
			<stop offset="0.8" stop-color="#2EC2F2" stop-opacity="0.0917" />
		</linearGradient>
		<linearGradient id="watergrad5" x1="50%" x2="50%" y1="0%" y2="100%">
			<stop offset="0" stop-color="#2EC2F2" stop-opacity="1.0000" />
			<stop offset="0.1" stop-color="#2EC2F2" stop-opacity="0.8439" />
			<stop offset="0.2" stop-color="#2EC2F2" stop-opacity="0.6879" />
			<stop offset="0.3" stop-color="#2EC2F2" stop-opacity="0.4577" />
			<stop offset="0.4" stop-color="#2EC2F2" stop-opacity="0.1613" />
			<stop offset="0.5" stop-color="#2EC2F2" stop-opacity="0.0933" />
			<stop offset="0.6" stop-color="#2EC2F2" stop-opacity="0.0917" />
			<stop offset="0.7" stop-color="#2EC2F2" stop-opacity="0.0917" />
			<stop offset="0.8" stop-color="#2EC2F2" stop-opacity="0.0917" />
		</linearGradient>
		<linearGradient id="watergrad6" x1="50%" x2="50%" y1="0%" y2="100%">
			<stop offset="0" stop-color="#2EC2F2" stop-opacity="1.0000" />
			<stop offset="0.1" stop-color="#2EC2F2" stop-opacity="1.0000" />
			<stop offset="0.2" stop-color="#2EC2F2" stop-opacity="1.0000" />
			<stop offset="0.3" stop-color="#2EC2F2" stop-opacity="0.9295" />
			<stop offset="0.4" stop-color="#2EC2F2" stop-opacity="0.5760" />
			<stop offset="0.5" stop-color="#2EC2F2" stop-opacity="0.2007" />
			<stop offset="0.6" stop-color="#2EC2F2" stop-opacity="0.1001" />
			<stop offset="0.7" stop-color="#2EC2F2" stop-opacity="0.0917" />
			<stop offset="0.8" stop-color="#2EC2F2" stop-opacity="0.0917" />
		</linearGradient>
		<linearGradient id="watergrad7" x1="50%" x2="50%" y1="0%" y2="100%">
			<stop offset="0" stop-color="#2EC2F2" stop-opacity="1.0000" />
			<stop offset="0.1" stop-color="#2EC2F2" stop-opacity="1.0000" />
			<stop offset="0.2" stop-color="#2EC2F2" stop-opacity="1.0000" />
			<stop offset="0.3" stop-color="#2EC2F2" stop-opacity="1.0000" />
			<stop offset="0.4" stop-color="#2EC2F2" stop-opacity="0.9444" />
			<stop offset="0.5" stop-color="#2EC2F2" stop-opacity="0.5814" />
			<stop offset="0.6" stop-color="#2EC2F2" stop-opacity="0.1863" />
			<stop offset="0.7" stop-color="#2EC2F2" stop-opacity="0.0917" />
			<stop offset="0.8" stop-color="#2EC2F2" stop-opacity="0.0917" />
		</linearGradient>
		<linearGradient id="watergrad8" x1="50%" x2="50%" y1="0%" y2="100%">
			<stop offset="0" stop-color="#2EC2F2" stop-opacity="1.0000" />
			<stop offset="0.1" stop-color="#2EC2F2" stop-opacity="1.0000" />
			<stop offset="0.2" stop-color="#2EC2F2" stop-opacity="1.0000" />
			<stop offset="0.3" stop-color="#2EC2F2" stop-opacity="1.0000" />
			<stop offset="0.4" stop-color="#2EC2F2" stop-opacity="1.0000" />
			<stop offset="0.5" stop-color="#2EC2F2" stop-opacity="0.8130" />
			<stop offset="0.6" stop-color="#2EC2F2" stop-opacity="0.3853" />
			<stop offset="0.7" stop-color="#2EC2F2" stop-opacity="0.0917" />
			<stop offset="0.8" stop-color="#2EC2F2" stop-opacity="0.0917" />
		</linearGradient>
		<linearGradient id="watergrad9" x1="50%" x2="50%" y1="0%" y2="100%">
			<stop offset="0" stop-color="#2EC2F2" stop-opacity="0.8016" />
			<stop offset="0.1" stop-color="#2EC2F2" stop-opacity="0.9409" />
			<stop offset="0.2" stop-color="#2EC2F2" stop-opacity="0.9840" />
			<stop offset="0.3" stop-color="#2EC2F2" stop-opacity="0.9901" />
			<stop offset="0.4" stop-color="#2EC2F2" stop-opacity="0.9969" />
			<stop offset="0.5" stop-color="#2EC2F2" stop-opacity="0.8790" />
			<stop offset="0.6" stop-color="#2EC2F2" stop-opacity="0.4341" />
			<stop offset="0.7" stop-color="#2EC2F2" stop-opacity="0.0917" />
			<stop offset="0.8" stop-color="#2EC2F2" stop-opacity="0.0917" />
		</linearGradient>
		<linearGradient id="watergrad10" x1="50%" x2="50%" y1="0%" y2="100%">
			<stop offset="0" stop-color="#2EC2F2" stop-opacity="0.1987" />
			<stop offset="0.1" stop-color="#2EC2F2" stop-opacity="0.2583" />
			<stop offset="0.2" stop-color="#2EC2F2" stop-opacity="0.3560" />
			<stop offset="0.3" stop-color="#2EC2F2" stop-opacity="0.4968" />
			<stop offset="0.4" stop-color="#2EC2F2" stop-opacity="0.7490" />
			<stop offset="0.5" stop-color="#2EC2F2" stop-opacity="0.7421" />
			<stop offset="0.6" stop-color="#2EC2F2" stop-opacity="0.3577" />
			<stop offset="0.7" stop-color="#2EC2F2" stop-opacity="0.0917" />
			<stop offset="0.8" stop-color="#2EC2F2" stop-opacity="0.0917" />
		</linearGradient>
		<linearGradient id="watergrad11" x1="50%" x2="50%" y1="0%" y2="100%">
			<stop offset="0" stop-color="#2EC2F2" stop-opacity="0.1917" />
			<stop offset="0.1" stop-color="#2EC2F2" stop-opacity="0.1178" />
			<stop offset="0.2" stop-color="#2EC2F2" stop-opacity="0.0887" />
			<stop offset="0.3" stop-color="#2EC2F2" stop-opacity="0.0904" />
			<stop offset="0.4" stop-color="#2EC2F2" stop-opacity="0.1355" />
			<stop offset="0.5" stop-color="#2EC2F2" stop-opacity="0.1831" />
			<stop offset="0.6" stop-color="#2EC2F2" stop-opacity="0.1396" />
			<stop offset="0.7" stop-color="#2EC2F2" stop-opacity="0.0917" />
			<stop offset="0.8" stop-color="#2EC2F2" stop-opacity="0.0917" />
		</linearGradient>
	</defs>
	<rect fill="white" height="1536" stroke="none" width="2048" x="0" y="0" />
	<svg height="614.4" id="month_01" preserveAspectRatio="none" viewBox="-20 0 40 614.4" width="152.064" x="163.84" y="814.08">
		<rect fill="#C8C8C8" height="614.4" stroke="none" width="40" x="-20" y="0" />
		<rect fill="url(#watergrad0)" height="614.4" stroke="none" width="40" x="-20" y="0" />
		<rect fill="#D97B27" height="158.97550848" stroke="none" width="40" x="-20" y="0" />
		<line fill="none" stroke="#6F6F6F" stroke-dasharray="40 20" x1="0" x2="0" y1="0" y2="614.4" />
		<polyline fill="none" points="-15.28446,0 -13.88494,61.44 -12.97365,122.88 -12.59375,153.6 -12.22106,184.32 -11.42451,245.76 -10.59889,307.2 -9.818398,368.64 -8.39829,491.52 -7.170049,614.4 " stroke="url(#tempgrad)" stroke-width="2" />
		<line fill="none" stroke="black" stroke-width="8" x1="-20" x2="20" y1="0" y2="0" />
	</svg>
	<rect fill="url(#snowpat)" height="260.53890048" stroke="none" width="152.064" x="163.84" y="553.54109952" />
	<rect fill="#FF5000" height="0" stroke="none" width="20.9743448275862" x="179.0464" y="814.08" />
	<rect fill="#FF9A00" height="0" stroke="none" width="20.9743448275862" x="204.215613793103" y="814.08" />
	<rect fill="#FFCB00" height="0" stroke="none" width="20.9743448275862" x="229.384827586207" y="814.08" />
	<rect fill="#84FF00" height="0" stroke="none" width="20.9743448275862" x="254.55404137931" y="814.08" />
	<rect fill="#00FFAE" height="0" stroke="none" width="20.9743448275862" x="279.723255172414" y="814.08" />
	<text baseline-shift="-150%" text-anchor="middle" x="239.872" y="40.96">Jan
	</text>
	<svg height="614.4" id="month_02" preserveAspectRatio="none" viewBox="-20 0 40 614.4" width="152.064" x="317.44" y="814.08">
		<rect fill="#C8C8C8" height="614.4" stroke="none" width="40" x="-20" y="0" />
		<rect fill="url(#watergrad1)" height="614.4" stroke="none" width="40" x="-20" y="0" />
		<rect fill="#D97B27" height="158.97587712" stroke="none" width="40" x="-20" y="0" />
		<line fill="none" stroke="#6F6F6F" stroke-dasharray="40 20" x1="0" x2="0" y1="0" y2="614.4" />
		<polyline fill="none" points="-15.6806,0 -14.847,61.44 -14.27361,122.88 -14.02754,153.6 -13.7743,184.32 -13.21926,245.76 -12.61804,307.2 -12.02341,368.64 -10.86724,491.52 -9.773577,614.4 " stroke="url(#tempgrad)" stroke-width="2" />
		<line fill="none" stroke="black" stroke-width="8" x1="-20" x2="20" y1="0" y2="0" />
	</svg>
	<rect fill="url(#snowpat)" height="334.08780288" stroke="none" width="152.064" x="317.44" y="479.99219712" />
	<rect fill="#FF5000" height="0" stroke="none" width="20.9743448275862" x="332.6464" y="814.08" />
	<rect fill="#FF9A00" height="0" stroke="none" width="20.9743448275862" x="357.815613793103" y="814.08" />
	<rect fill="#FFCB00" height="0" stroke="none" width="20.9743448275862" x="382.984827586207" y="814.08" />
	<rect fill="#84FF00" height="0" stroke="none" width="20.9743448275862" x="408.15404137931" y="814.08" />
	<rect fill="#00FFAE" height="0" stroke="none" width="20.9743448275862" x="433.323255172414" y="814.08" />
	<line fill="none" stroke="#6F6F6F" stroke-width="6" x1="316.672" x2="316.672" y1="1428.48" y2="40.96" />
	<text baseline-shift="-150%" text-anchor="middle" x="393.472" y="40.96">Feb
	</text>
	<svg height="614.4" id="month_03" preserveAspectRatio="none" viewBox="-20 0 40 614.4" width="152.064" x="471.04" y="814.08">
		<rect fill="#C8C8C8" height="614.4" stroke="none" width="40" x="-20" y="0" />
		<rect fill="url(#watergrad2)" height="614.4" stroke="none" width="40" x="-20" y="0" />
		<rect fill="#D97B27" height="158.97821184" stroke="none" width="40" x="-20" y="0" />
		<line fill="none" stroke="#6F6F6F" stroke-dasharray="40 20" x1="0" x2="0" y1="0" y2="614.4" />
		<polyline fill="none" points="-13.31716,0 -13.07229,61.44 -12.86776,122.88 -12.77234,153.6 -12.66194,184.32 -12.40682,245.76 -12.10667,307.2 -11.78727,368.64 -11.10674,491.52 -10.39372,614.4 " stroke="url(#tempgrad)" stroke-width="2" />
		<line fill="none" stroke="black" stroke-width="8" x1="-20" x2="20" y1="0" y2="0" />
	</svg>
	<rect fill="url(#snowpat)" height="369.9283968" stroke="none" width="152.064" x="471.04" y="444.1516032" />
	<rect fill="#FF5000" height="0" stroke="none" width="20.9743448275862" x="486.2464" y="814.08" />
	<rect fill="#FF9A00" height="0" stroke="none" width="20.9743448275862" x="511.415613793103" y="814.08" />
	<rect fill="#FFCB00" height="0" stroke="none" width="20.9743448275862" x="536.584827586207" y="814.08" />
	<rect fill="#84FF00" height="0" stroke="none" width="20.9743448275862" x="561.75404137931" y="814.08" />
	<rect fill="#00FFAE" height="0" stroke="none" width="20.9743448275862" x="586.923255172414" y="814.08" />
	<line fill="none" stroke="#6F6F6F" stroke-width="6" x1="470.272" x2="470.272" y1="1428.48" y2="40.96" />
	<text baseline-shift="-150%" text-anchor="middle" x="547.072" y="40.96">Mar
	</text>
	<svg height="614.4" id="month_04" preserveAspectRatio="none" viewBox="-20 0 40 614.4" width="152.064" x="624.64" y="814.08">
		<rect fill="#C8C8C8" height="614.4" stroke="none" width="40" x="-20" y="0" />
		<rect fill="url(#watergrad3)" height="614.4" stroke="none" width="40" x="-20" y="0" />
		<rect fill="#D97B27" height="151.71950592" stroke="none" width="40" x="-20" y="0" />
		<line fill="none" stroke="#6F6F6F" stroke-dasharray="40 20" x1="0" x2="0" y1="0" y2="614.4" />
		<polyline fill="none" points="-6.553382,0 -7.446829,61.44 -7.948431,122.88 -8.138376,153.6 -8.289531,184.32 -8.576283,245.76 -8.810616,307.2 -8.975501,368.64 -9.129018,491.52 -9.094517,614.4 " stroke="url(#tempgrad)" stroke-width="2" />
		<line fill="none" stroke="black" stroke-width="8" x1="-20" x2="20" y1="0" y2="0" />
	</svg>
	<rect fill="url(#snowpat)" height="220.82463744" stroke="none" width="152.064" x="624.64" y="593.25536256" />
	<rect fill="#FF5000" height="0.0012330828288" stroke="none" width="20.9743448275862" x="639.8464" y="814.078766917171" />
	<rect fill="#FF9A00" height="0" stroke="none" width="20.9743448275862" x="665.015613793104" y="814.08" />
	<rect fill="#FFCB00" height="0" stroke="none" width="20.9743448275862" x="690.184827586207" y="814.08" />
	<rect fill="#84FF00" height="0" stroke="none" width="20.9743448275862" x="715.354041379311" y="814.08" />
	<rect fill="#00FFAE" height="0" stroke="none" width="20.9743448275862" x="740.523255172414" y="814.08" />
	<line fill="none" stroke="#6F6F6F" stroke-width="6" x1="623.872" x2="623.872" y1="1428.48" y2="40.96" />
	<text baseline-shift="-150%" text-anchor="middle" x="700.672" y="40.96">Apr
	</text>
	<svg height="614.4" id="month_05" preserveAspectRatio="none" viewBox="-20 0 40 614.4" width="152.064" x="778.24" y="814.08">
		<rect fill="#C8C8C8" height="614.4" stroke="none" width="40" x="-20" y="0" />
		<rect fill="url(#watergrad4)" height="614.4" stroke="none" width="40" x="-20" y="0" />
		<rect fill="#D97B27" height="17.247080448" stroke="none" width="40" x="-20" y="0" />
		<line fill="none" stroke="#6F6F6F" stroke-dasharray="40 20" x1="0" x2="0" y1="0" y2="614.4" />
		<polyline fill="none" points="4.39381,0 0.864917,61.44 -0.7996652,122.88 -1.061966,153.6 -1.361121,184.32 -2.011744,245.76 -2.684891,307.2 -3.298101,368.64 -4.34582,491.52 -5.165421,614.4 " stroke="url(#tempgrad)" stroke-width="2" />
		<line fill="none" stroke="black" stroke-width="8" x1="-20" x2="20" y1="0" y2="0" />
	</svg>
	<rect fill="url(#snowpat)" height="27.279550464" stroke="none" width="152.064" x="778.24" y="786.800449536" />
	<rect fill="#FF5000" height="0" stroke="none" width="20.9743448275862" x="793.4464" y="814.08" />
	<rect fill="#FF9A00" height="0" stroke="none" width="20.9743448275862" x="818.615613793104" y="814.08" />
	<rect fill="#FFCB00" height="0" stroke="none" width="20.9743448275862" x="843.784827586207" y="814.08" />
	<rect fill="#84FF00" height="177.17308416" stroke="none" width="20.9743448275862" x="868.954041379311" y="636.90691584" />
	<rect fill="#00FFAE" height="15.794754048" stroke="none" width="20.9743448275862" x="894.123255172414" y="798.285245952" />
	<line fill="none" stroke="#6F6F6F" stroke-width="6" x1="777.472" x2="777.472" y1="1428.48" y2="40.96" />
	<text baseline-shift="-150%" text-anchor="middle" x="854.272" y="40.96">May
	</text>
	<svg height="614.4" id="month_06" preserveAspectRatio="none" viewBox="-20 0 40 614.4" width="152.064" x="931.84" y="814.08">
		<rect fill="#C8C8C8" height="614.4" stroke="none" width="40" x="-20" y="0" />
		<rect fill="url(#watergrad5)" height="614.4" stroke="none" width="40" x="-20" y="0" />
		<rect fill="#D97B27" height="58.80474624" stroke="none" width="40" x="-20" y="0" />
		<line fill="none" stroke="#6F6F6F" stroke-dasharray="40 20" x1="0" x2="0" y1="0" y2="614.4" />
		<polyline fill="none" points="10.64542,0 6.469191,61.44 2.511608,122.88 0.6302884,153.6 0.3129331,184.32 -0.1000073,245.76 -0.4004163,307.2 -0.8187857,368.64 -1.641953,491.52 -2.396008,614.4 " stroke="url(#tempgrad)" stroke-width="2" />
		<line fill="none" stroke="black" stroke-width="8" x1="-20" x2="20" y1="0" y2="0" />
	</svg>
	<rect fill="#FF5000" height="0" stroke="none" width="20.9743448275862" x="947.0464" y="814.08" />
	<rect fill="#FF9A00" height="0" stroke="none" width="20.9743448275862" x="972.215613793104" y="814.08" />
	<rect fill="#FFCB00" height="0" stroke="none" width="20.9743448275862" x="997.384827586207" y="814.08" />
	<rect fill="#84FF00" height="576" stroke="none" width="20.9743448275862" x="1022.55404137931" y="238.08" />
	<polygon fill="#84FF00" points="1022.55404137931,239.08 1043.5283862069,239.08 1033.0412137931,222.72 " stroke="none" />
	<text baseline-shift="-20%" fill="black" font-size="80%" font-weight="bold" text-anchor="start" transform="rotate(-90,1033.0412137931,215.04)" x="1033.0412137931" y="215.04">191
	</text>
	<rect fill="#00FFAE" height="32.189617152" stroke="none" width="20.9743448275862" x="1047.72325517241" y="781.890382848" />
	<line fill="none" stroke="#6F6F6F" stroke-width="6" x1="931.072" x2="931.072" y1="1428.48" y2="40.96" />
	<text baseline-shift="-150%" text-anchor="middle" x="1007.872" y="40.96">Jun
	</text>
	<svg height="614.4" id="month_07" preserveAspectRatio="none" viewBox="-20 0 40 614.4" width="152.064" x="1085.44" y="814.08">
		<rect fill="#C8C8C8" height="614.4" stroke="none" width="40" x="-20" y="0" />
		<rect fill="url(#watergrad6)" height="614.4" stroke="none" width="40" x="-20" y="0" />
		<rect fill="#D97B27" height="115.70466816" stroke="none" width="40" x="-20" y="0" />
		<line fill="none" stroke="#6F6F6F" stroke-dasharray="40 20" x1="0" x2="0" y1="0" y2="614.4" />
		<polyline fill="none" points="12.97369,0 9.593029,61.44 6.299404,122.88 4.726018,153.6 2.986294,184.32 0.6232849,245.76 -0.03559433,307.2 -0.1942538,368.64 -0.7776119,491.52 -1.36644,614.4 " stroke="url(#tempgrad)" stroke-width="2" />
		<line fill="none" stroke="black" stroke-width="8" x1="-20" x2="20" y1="0" y2="0" />
	</svg>
	<rect fill="#FF5000" height="0" stroke="none" width="20.9743448275862" x="1100.6464" y="814.08" />
	<rect fill="#FF9A00" height="0" stroke="none" width="20.9743448275862" x="1125.8156137931" y="814.08" />
	<rect fill="#FFCB00" height="5.628427776e-06" stroke="none" width="20.9743448275862" x="1150.98482758621" y="814.079994371572" />
	<rect fill="#84FF00" height="456.48479232" stroke="none" width="20.9743448275862" x="1176.15404137931" y="357.59520768" />
	<rect fill="#00FFAE" height="8.210792448" stroke="none" width="20.9743448275862" x="1201.32325517241" y="805.869207552" />
	<line fill="none" stroke="#6F6F6F" stroke-width="6" x1="1084.672" x2="1084.672" y1="1428.48" y2="40.96" />
	<text baseline-shift="-150%" text-anchor="middle" x="1161.472" y="40.96">Jul
	</text>
	<svg height="614.4" id="month_08" preserveAspectRatio="none" viewBox="-20 0 40 614.4" width="152.064" x="1239.04" y="814.08">
		<rect fill="#C8C8C8" height="614.4" stroke="none" width="40" x="-20" y="0" />
		<rect fill="url(#watergrad7)" height="614.4" stroke="none" width="40" x="-20" y="0" />
		<rect fill="#D97B27" height="158.31085056" stroke="none" width="40" x="-20" y="0" />
		<line fill="none" stroke="#6F6F6F" stroke-dasharray="40 20" x1="0" x2="0" y1="0" y2="614.4" />
		<polyline fill="none" points="11.24081,0 9.074793,61.44 6.833673,122.88 5.74012,153.6 4.576941,184.32 2.066396,245.76 0.3595158,307.2 -0.03565319,368.64 -0.4016265,491.52 -0.8699577,614.4 " stroke="url(#tempgrad)" stroke-width="2" />
		<line fill="none" stroke="black" stroke-width="8" x1="-20" x2="20" y1="0" y2="0" />
	</svg>
	<rect fill="#FF5000" height="0.5031839232" stroke="none" width="20.9743448275862" x="1254.2464" y="813.5768160768" />
	<rect fill="#FF9A00" height="3.098262528" stroke="none" width="20.9743448275862" x="1279.4156137931" y="810.981737472" />
	<rect fill="#FFCB00" height="0.0002064356352" stroke="none" width="20.9743448275862" x="1304.58482758621" y="814.079793564365" />
	<rect fill="#84FF00" height="119.2916736" stroke="none" width="20.9743448275862" x="1329.75404137931" y="694.7883264" />
	<rect fill="#00FFAE" height="0.15323175936" stroke="none" width="20.9743448275862" x="1354.92325517241" y="813.92676824064" />
	<line fill="none" stroke="#6F6F6F" stroke-width="6" x1="1238.272" x2="1238.272" y1="1428.48" y2="40.96" />
	<text baseline-shift="-150%" text-anchor="middle" x="1315.072" y="40.96">Aug
	</text>
	<svg height="614.4" id="month_09" preserveAspectRatio="none" viewBox="-20 0 40 614.4" width="152.064" x="1392.64" y="814.08">
		<rect fill="#C8C8C8" height="614.4" stroke="none" width="40" x="-20" y="0" />
		<rect fill="url(#watergrad8)" height="614.4" stroke="none" width="40" x="-20" y="0" />
		<rect fill="#D97B27" height="172.96422912" stroke="none" width="40" x="-20" y="0" />
		<line fill="none" stroke="#6F6F6F" stroke-dasharray="40 20" x1="0" x2="0" y1="0" y2="614.4" />
		<polyline fill="none" points="5.899117,0 5.181574,61.44 4.272145,122.88 3.790989,153.6 3.222841,184.32 1.986797,245.76 0.65945,307.2 0,368.64 -0.2699135,491.52 -0.6434892,614.4 " stroke="url(#tempgrad)" stroke-width="2" />
		<line fill="none" stroke="black" stroke-width="8" x1="-20" x2="20" y1="0" y2="0" />
	</svg>
	<rect fill="#FF5000" height="0.6361892352" stroke="none" width="20.9743448275862" x="1407.8464" y="813.4438107648" />
	<rect fill="#FF9A00" height="2.751547392" stroke="none" width="20.9743448275862" x="1433.0156137931" y="811.328452608" />
	<rect fill="#FFCB00" height="0.00010127849472" stroke="none" width="20.9743448275862" x="1458.18482758621" y="814.079898721505" />
	<rect fill="#84FF00" height="12.03487488" stroke="none" width="20.9743448275862" x="1483.35404137931" y="802.04512512" />
	<rect fill="#00FFAE" height="0" stroke="none" width="20.9743448275862" x="1508.52325517241" y="814.08" />
	<line fill="none" stroke="#6F6F6F" stroke-width="6" x1="1391.872" x2="1391.872" y1="1428.48" y2="40.96" />
	<text baseline-shift="-150%" text-anchor="middle" x="1468.672" y="40.96">Sep
	</text>
	<svg height="614.4" id="month_10" preserveAspectRatio="none" viewBox="-20 0 40 614.4" width="152.064" x="1546.24" y="814.08">
		<rect fill="#C8C8C8" height="614.4" stroke="none" width="40" x="-20" y="0" />
		<rect fill="url(#watergrad9)" height="614.4" stroke="none" width="40" x="-20" y="0" />
		<rect fill="#D97B27" height="159.94128384" stroke="none" width="40" x="-20" y="0" />
		<line fill="none" stroke="#6F6F6F" stroke-dasharray="40 20" x1="0" x2="0" y1="0" y2="614.4" />
		<polyline fill="none" points="-1.206445,0 0.0574658,61.44 0.452068,122.88 0.4396947,153.6 0.3927152,184.32 0.2650311,245.76 0.09216321,307.2 -0.06291197,368.64 -0.3816455,491.52 -0.6653912,614.4 " stroke="url(#tempgrad)" stroke-width="2" />
		<line fill="none" stroke="black" stroke-width="8" x1="-20" x2="20" y1="0" y2="0" />
	</svg>
	<rect fill="url(#snowpat)" height="24.3930624" stroke="none" width="152.064" x="1546.24" y="789.6869376" />
	<rect fill="#FF5000" height="0" stroke="none" width="20.9743448275862" x="1561.4464" y="814.08" />
	<rect fill="#FF9A00" height="0" stroke="none" width="20.9743448275862" x="1586.6156137931" y="814.08" />
	<rect fill="#FFCB00" height="0" stroke="none" width="20.9743448275862" x="1611.78482758621" y="814.08" />
	<rect fill="#84FF00" height="0" stroke="none" width="20.9743448275862" x="1636.95404137931" y="814.08" />
	<rect fill="#00FFAE" height="0" stroke="none" width="20.9743448275862" x="1662.12325517241" y="814.08" />
	<line fill="none" stroke="#6F6F6F" stroke-width="6" x1="1545.472" x2="1545.472" y1="1428.48" y2="40.96" />
	<text baseline-shift="-150%" text-anchor="middle" x="1622.272" y="40.96">Oct
	</text>
	<svg height="614.4" id="month_11" preserveAspectRatio="none" viewBox="-20 0 40 614.4" width="152.064" x="1699.84" y="814.08">
		<rect fill="#C8C8C8" height="614.4" stroke="none" width="40" x="-20" y="0" />
		<rect fill="url(#watergrad10)" height="614.4" stroke="none" width="40" x="-20" y="0" />
		<rect fill="#D97B27" height="159.09998592" stroke="none" width="40" x="-20" y="0" />
		<line fill="none" stroke="#6F6F6F" stroke-dasharray="40 20" x1="0" x2="0" y1="0" y2="614.4" />
		<polyline fill="none" points="-7.737453,0 -4.934912,61.44 -2.664962,122.88 -1.511986,153.6 -0.8863326,184.32 -0.1307987,245.76 -0.0004590008,307.2 -0.187622,368.64 -0.5400789,491.52 -0.7683002,614.4 " stroke="url(#tempgrad)" stroke-width="2" />
		<line fill="none" stroke="black" stroke-width="8" x1="-20" x2="20" y1="0" y2="0" />
	</svg>
	<rect fill="url(#snowpat)" height="111.75696384" stroke="none" width="152.064" x="1699.84" y="702.32303616" />
	<rect fill="#FF5000" height="0" stroke="none" width="20.9743448275862" x="1715.0464" y="814.08" />
	<rect fill="#FF9A00" height="0" stroke="none" width="20.9743448275862" x="1740.2156137931" y="814.08" />
	<rect fill="#FFCB00" height="0" stroke="none" width="20.9743448275862" x="1765.38482758621" y="814.08" />
	<rect fill="#84FF00" height="0" stroke="none" width="20.9743448275862" x="1790.55404137931" y="814.08" />
	<rect fill="#00FFAE" height="0" stroke="none" width="20.9743448275862" x="1815.72325517241" y="814.08" />
	<line fill="none" stroke="#6F6F6F" stroke-width="6" x1="1699.072" x2="1699.072" y1="1428.48" y2="40.96" />
	<text baseline-shift="-150%" text-anchor="middle" x="1775.872" y="40.96">Nov
	</text>
	<svg height="614.4" id="month_12" preserveAspectRatio="none" viewBox="-20 0 40 614.4" width="152.064" x="1853.44" y="814.08">
		<rect fill="#C8C8C8" height="614.4" stroke="none" width="40" x="-20" y="0" />
		<rect fill="url(#watergrad11)" height="614.4" stroke="none" width="40" x="-20" y="0" />
		<rect fill="#D97B27" height="159.10004736" stroke="none" width="40" x="-20" y="0" />
		<line fill="none" stroke="#6F6F6F" stroke-dasharray="40 20" x1="0" x2="0" y1="0" y2="614.4" />
		<polyline fill="none" points="-11.73498,0 -9.455782,61.44 -7.983151,122.88 -7.372511,153.6 -6.774092,184.32 -5.258065,245.76 -3.924366,307.2 -3.446966,368.64 -2.837985,491.52 -2.333116,614.4 " stroke="url(#tempgrad)" stroke-width="2" />
		<line fill="none" stroke="black" stroke-width="8" x1="-20" x2="20" y1="0" y2="0" />
	</svg>
	<rect fill="url(#snowpat)" height="190.57760256" stroke="none" width="152.064" x="1853.44" y="623.50239744" />
	<rect fill="#FF5000" height="0" stroke="none" width="20.9743448275862" x="1868.6464" y="814.08" />
	<rect fill="#FF9A00" height="0" stroke="none" width="20.9743448275862" x="1893.8156137931" y="814.08" />
	<rect fill="#FFCB00" height="0" stroke="none" width="20.9743448275862" x="1918.98482758621" y="814.08" />
	<rect fill="#84FF00" height="0" stroke="none" width="20.9743448275862" x="1944.15404137931" y="814.08" />
	<rect fill="#00FFAE" height="0" stroke="none" width="20.9743448275862" x="1969.32325517241" y="814.08" />
	<line fill="none" stroke="#6F6F6F" stroke-width="6" x1="1852.672" x2="1852.672" y1="1428.48" y2="40.96" />
	<text baseline-shift="-150%" text-anchor="middle" x="1929.472" y="40.96">Dec
	</text>
	<rect fill="white" height="194.4" stroke="none" width="792" x="189.533572413793" y="115.68" />
	<polyline fill="none" opacity="0.75" points="189.533572413793,808.96 189.533572413793,140.88 381.696,140.88 " stroke="#FF5000" stroke-width="6" />
	<text baseline-shift="-45%" fill="#FF5000" font-weight="bold" stroke="none" x="391.936" y="140.88">Boreal evergreen needleleaf tree
	</text>
	<polyline fill="none" opacity="0.75" points="214.702786206897,808.96 214.702786206897,176.88 381.696,176.88 " stroke="#FF9A00" stroke-width="6" />
	<text baseline-shift="-45%" fill="#FF9A00" font-weight="bold" stroke="none" x="391.936" y="176.88">Boreal summergreen broadleaf tree
	</text>
	<polyline fill="none" opacity="0.75" points="239.872,808.96 239.872,212.88 381.696,212.88 " stroke="#FFCB00" stroke-width="6" />
	<text baseline-shift="-45%" fill="#FFCB00" font-weight="bold" stroke="none" x="391.936" y="212.88">C3 grass
	</text>
	<polyline fill="none" opacity="0.75" points="265.041213793103,808.96 265.041213793103,248.88 381.696,248.88 " stroke="#84FF00" stroke-width="6" />
	<text baseline-shift="-45%" fill="#84FF00" font-weight="bold" stroke="none" x="391.936" y="248.88">Flood-tolerant graminoid
	</text>
	<polyline fill="none" opacity="0.75" points="290.210427586207,808.96 290.210427586207,284.88 381.696,284.88 " stroke="#00FFAE" stroke-width="6" />
	<text baseline-shift="-45%" fill="#00FFAE" font-weight="bold" stroke="none" x="391.936" y="284.88">Peatmoss
	</text>
	<g id="temp_scale">
		<g id="temp_scale_lines" style="fill: none; stroke: black">
			<line stroke-width="4" x1="239.872" x2="239.872" y1="1438.72" y2="1448.96" />
		</g>
		<g id="temp_scale_labels" style="fill: black; stroke: none">
			<text baseline-shift="-60%" text-anchor="middle" x="163.84" y="1459.2">-20
			</text>
			<text baseline-shift="-60%" text-anchor="middle" x="239.872" y="1459.2">0
			</text>
			<text baseline-shift="-60%" text-anchor="middle" x="315.904" y="1459.2">20
			</text>
		</g>
	</g>
	<polyline fill="none" points="163.84,1448.96 163.84,1438.72 315.904,1438.72 315.904,1448.96 " stroke="black" stroke-width="4" />
	<g id="depth_scale">
		<g id="depth_scale_lines" style="fill: none; stroke: black">
			<line stroke-width="4" x1="153.6" x2="143.36" y1="1274.88" y2="1274.88" />
			<line stroke-width="4" x1="153.6" x2="143.36" y1="1121.28" y2="1121.28" />
			<line stroke-width="4" x1="153.6" x2="143.36" y1="967.68" y2="967.68" />
			<line stroke-width="4" x1="153.6" x2="143.36" y1="814.08" y2="814.08" />
			<line stroke-width="4" x1="153.6" x2="143.36" y1="660.48" y2="660.48" />
			<line stroke-width="4" x1="153.6" x2="143.36" y1="506.88" y2="506.88" />
		</g>
		<g id="depth_scale_labels" style="fill: black; stroke: none">
			<text baseline-shift="-50%" text-anchor="end" x="133.12" y="1428.48">-100
			</text>
			<text baseline-shift="-50%" text-anchor="end" x="133.12" y="1274.88">-75
			</text>
			<text baseline-shift="-50%" text-anchor="end" x="133.12" y="1121.28">-50
			</text>
			<text baseline-shift="-50%" text-anchor="end" x="133.12" y="967.68">-25
			</text>
			<text baseline-shift="-50%" text-anchor="end" x="133.12" y="814.08">0
			</text>
			<text baseline-shift="-50%" text-anchor="end" x="133.12" y="660.48">25
			</text>
			<text baseline-shift="-50%" text-anchor="end" x="133.12" y="506.88">50
			</text>
			<text baseline-shift="-50%" text-anchor="end" x="133.12" y="353.28">75
			</text>
		</g>
	</g>
	<polyline fill="none" points="143.36,1428.48 153.6,1428.48 153.6,353.28 143.36,353.28 " stroke="black" stroke-width="4" />
	<g id="npp_scale">
		<g id="npp_scale_lines" style="fill: none; stroke: black">
			<line stroke-width="4" x1="81.92" x2="71.68" y1="698.88" y2="698.88" />
			<line stroke-width="4" x1="81.92" x2="71.68" y1="583.68" y2="583.68" />
			<line stroke-width="4" x1="81.92" x2="71.68" y1="468.48" y2="468.48" />
			<line stroke-width="4" x1="81.92" x2="71.68" y1="353.28" y2="353.28" />
			<line stroke-width="4" x1="81.92" x2="71.68" y1="238.08" y2="238.08" />
		</g>
		<g id="npp_scale_labels" style="fill: black; stroke: none">
			<text baseline-shift="-50%" text-anchor="end" x="61.44" y="814.08">0
			</text>
			<text baseline-shift="-50%" text-anchor="end" x="61.44" y="698.88">25
			</text>
			<text baseline-shift="-50%" text-anchor="end" x="61.44" y="583.68">50
			</text>
			<text baseline-shift="-50%" text-anchor="end" x="61.44" y="468.48">75
			</text>
			<text baseline-shift="-50%" text-anchor="end" x="61.44" y="353.28">100
			</text>
			<text baseline-shift="-50%" text-anchor="end" x="61.44" y="238.08">125
			</text>
			<text baseline-shift="-50%" text-anchor="end" x="61.44" y="122.88">150
			</text>
		</g>
	</g>
	<polyline fill="none" points="71.68,814.08 81.92,814.08 81.92,122.88 71.68,122.88 " stroke="black" stroke-width="4" />
	<text text-anchor="middle" x="239.872" y="1510.4">Soil temperature (&#176;C)
	</text>
	<text x="20.48" y="1182.72">Soil
	</text>
	<text x="20.48" y="1218.72">depth
	</text>
	<text x="20.48" y="1254.72">(cm)
	</text>
	<text x="20.48" y="50.8799999999999">Monthly NPP
	</text>
	<text x="20.48" y="86.8799999999999">
		<tspan >(gC/m
		</tspan>
		<tspan dx="-10" dy="-10" font-size="75%">2
		</tspan>
		<tspan dx="-5" dy="10">)
		</tspan>
	</text>
	<text font-family="serif" font-size="150%" text-anchor="middle" x="1024" y="1500">(c) Canada, 60.75&#176;N 239.75&#176;E
	</text><!-- 
	Generated using the Perl SVG Module V2.33
	by Ronan Oger
	Info: http://www.roasp.com/
 -->
</svg>
