<svg xmlns="http://www.w3.org/2000/svg" xmlns:xlink="http://www.w3.org/1999/xlink" width="193.0855pt" height="134.99252pt" viewBox="-7.74268 13.82639 193.0855 134.99252 "> 
<g transform="translate(0, 148.81891 ) scale(1,-1) translate(0,-13.82639 )"> 
       
 <g> 
 <g stroke="rgb(0.0%,0.0%,0.0%)"> 
 <g fill="rgb(0.0%,0.0%,0.0%)"> 
 <g stroke-width="0.4pt"> 
 <g> 
 <g> 
 <g stroke-width="0.8pt"> 
 <path d=" M  28.45274 28.45274 M  14.22638 14.22638 M  14.22638 14.22638 L  14.22638 42.67911 L  42.67911 42.67911 L  42.67911 14.22638 Z M  42.67911 42.67911  " style="fill:none"/> 
 <path d=" M  28.45274 56.90549 M  14.22638 42.67912 M  14.22638 42.67912 L  14.22638 71.13185 L  42.67911 71.13185 L  42.67911 42.67912 Z M  42.67911 71.13185  " style="fill:none"/> 
 <path d=" M  28.45274 85.35823 M  14.22638 71.13187 M  14.22638 71.13187 L  14.22638 99.5846 L  42.67911 99.5846 L  42.67911 71.13187 Z M  42.67911 99.5846  " style="fill:none"/> 
 <path d=" M  28.45274 113.81097 M  14.22638 99.58461 M  14.22638 99.58461 L  14.22638 128.03734 L  42.67911 128.03734 L  42.67911 99.58461 Z M  42.67911 128.03734  " style="fill:none"/> 
 <path d=" M  56.90549 28.45274 M  42.67912 14.22638 M  42.67912 14.22638 L  42.67912 42.67911 L  71.13185 42.67911 L  71.13185 14.22638 Z M  71.13185 42.67911  " style="fill:none"/> 
 <path d=" M  56.90549 56.90549 M  42.67912 42.67912 M  42.67912 42.67912 L  42.67912 71.13185 L  71.13185 71.13185 L  71.13185 42.67912 Z M  71.13185 71.13185  " style="fill:none"/> 
 <path d=" M  56.90549 85.35823 M  42.67912 71.13187 M  42.67912 71.13187 L  42.67912 99.5846 L  71.13185 99.5846 L  71.13185 71.13187 Z M  71.13185 99.5846  " style="fill:none"/> 
 <path d=" M  56.90549 113.81097 M  42.67912 99.58461 M  42.67912 99.58461 L  42.67912 128.03734 L  71.13185 128.03734 L  71.13185 99.58461 Z M  71.13185 128.03734  " style="fill:none"/> 
 <path d=" M  85.35823 28.45274 M  71.13187 14.22638 M  71.13187 14.22638 L  71.13187 42.67911 L  99.5846 42.67911 L  99.5846 14.22638 Z M  99.5846 42.67911  " style="fill:none"/> 
 <path d=" M  85.35823 56.90549 M  71.13187 42.67912 M  71.13187 42.67912 L  71.13187 71.13185 L  99.5846 71.13185 L  99.5846 42.67912 Z M  99.5846 71.13185  " style="fill:none"/> 
 <path d=" M  85.35823 85.35823 M  71.13187 71.13187 M  71.13187 71.13187 L  71.13187 99.5846 L  99.5846 99.5846 L  99.5846 71.13187 Z M  99.5846 99.5846  " style="fill:none"/> 
 <path d=" M  85.35823 113.81097 M  71.13187 99.58461 M  71.13187 99.58461 L  71.13187 128.03734 L  99.5846 128.03734 L  99.5846 99.58461 Z M  99.5846 128.03734  " style="fill:none"/> 
 <path d=" M  113.81097 28.45274 M  99.58461 14.22638 M  99.58461 14.22638 L  99.58461 42.67911 L  128.03734 42.67911 L  128.03734 14.22638 Z M  128.03734 42.67911  " style="fill:none"/> 
 <path d=" M  113.81097 56.90549 M  99.58461 42.67912 M  99.58461 42.67912 L  99.58461 71.13185 L  128.03734 71.13185 L  128.03734 42.67912 Z M  128.03734 71.13185  " style="fill:none"/> 
 <path d=" M  113.81097 85.35823 M  99.58461 71.13187 M  99.58461 71.13187 L  99.58461 99.5846 L  128.03734 99.5846 L  128.03734 71.13187 Z M  128.03734 99.5846  " style="fill:none"/> 
 <path d=" M  113.81097 113.81097 M  99.58461 99.58461 M  99.58461 99.58461 L  99.58461 128.03734 L  128.03734 128.03734 L  128.03734 99.58461 Z M  128.03734 128.03734  " style="fill:none"/> 
 <path d=" M  142.26372 28.45274 M  128.03735 14.22638 M  128.03735 14.22638 L  128.03735 42.67911 L  156.49008 42.67911 L  156.49008 14.22638 Z M  156.49008 42.67911  " style="fill:none"/> 
 <path d=" M  142.26372 56.90549 M  128.03735 42.67912 M  128.03735 42.67912 L  128.03735 71.13185 L  156.49008 71.13185 L  156.49008 42.67912 Z M  156.49008 71.13185  " style="fill:none"/> 
 <path d=" M  142.26372 85.35823 M  128.03735 71.13187 M  128.03735 71.13187 L  128.03735 99.5846 L  156.49008 99.5846 L  156.49008 71.13187 Z M  156.49008 99.5846  " style="fill:none"/> 
 <path d=" M  142.26372 113.81097 M  128.03735 99.58461 M  128.03735 99.58461 L  128.03735 128.03734 L  156.49008 128.03734 L  156.49008 99.58461 Z M  156.49008 128.03734  " style="fill:none"/> 
 <path d=" M  170.71646 28.45274 M  156.4901 14.22638 M  156.4901 14.22638 L  156.4901 42.67911 L  184.94283 42.67911 L  184.94283 14.22638 Z M  184.94283 42.67911  " style="fill:none"/> 
 <path d=" M  170.71646 56.90549 M  156.4901 42.67912 M  156.4901 42.67912 L  156.4901 71.13185 L  184.94283 71.13185 L  184.94283 42.67912 Z M  184.94283 71.13185  " style="fill:none"/> 
 <path d=" M  170.71646 85.35823 M  156.4901 71.13187 M  156.4901 71.13187 L  156.4901 99.5846 L  184.94283 99.5846 L  184.94283 71.13187 Z M  184.94283 99.5846  " style="fill:none"/> 
 <path d=" M  170.71646 113.81097 M  156.4901 99.58461 M  156.4901 99.58461 L  156.4901 128.03734 L  184.94283 128.03734 L  184.94283 99.58461 Z M  184.94283 128.03734  " style="fill:none"/> 
 </g> 
 </g> 
 <path d=" M  28.45274 142.26372  " style="fill:none"/> 
 <g> 
 <g> 
 <g transform="matrix(1.0,0.0,0.0,1.0,25.57776,139.0415)"> 
 <g fill="rgb(0.0%,0.0%,0.0%)"> 
 <text style="stroke:none" transform="scale(1,-1) translate(2.87498,0)" text-anchor="middle"  font-size="10"> 
<tspan font-family="cmbx" font-size="10">1</tspan></text> 
</g> 
 </g> 
 </g> 
 </g> 
 <path d=" M  56.90549 142.26372  " style="fill:none"/> 
 <g> 
 <g> 
 <g transform="matrix(1.0,0.0,0.0,1.0,54.0305,139.0415)"> 
 <g fill="rgb(0.0%,0.0%,0.0%)"> 
 <text style="stroke:none" transform="scale(1,-1) translate(2.87498,0)" text-anchor="middle"  font-size="10"> 
<tspan font-family="cmbx" font-size="10">2</tspan></text> 
</g> 
 </g> 
 </g> 
 </g> 
 <path d=" M  85.35823 142.26372  " style="fill:none"/> 
 <g> 
 <g> 
 <g transform="matrix(1.0,0.0,0.0,1.0,82.48325,139.0415)"> 
 <g fill="rgb(0.0%,0.0%,0.0%)"> 
 <text style="stroke:none" transform="scale(1,-1) translate(2.87498,0)" text-anchor="middle"  font-size="10"> 
<tspan font-family="cmbx" font-size="10">3</tspan></text> 
</g> 
 </g> 
 </g> 
 </g> 
 <path d=" M  113.81097 142.26372  " style="fill:none"/> 
 <g> 
 <g> 
 <g transform="matrix(1.0,0.0,0.0,1.0,110.93599,139.0415)"> 
 <g fill="rgb(0.0%,0.0%,0.0%)"> 
 <text style="stroke:none" transform="scale(1,-1) translate(2.87498,0)" text-anchor="middle"  font-size="10"> 
<tspan font-family="cmbx" font-size="10">4</tspan></text> 
</g> 
 </g> 
 </g> 
 </g> 
 <path d=" M  142.26372 142.26372  " style="fill:none"/> 
 <g> 
 <g> 
 <g transform="matrix(1.0,0.0,0.0,1.0,139.38873,139.0415)"> 
 <g fill="rgb(0.0%,0.0%,0.0%)"> 
 <text style="stroke:none" transform="scale(1,-1) translate(2.87498,0)" text-anchor="middle"  font-size="10"> 
<tspan font-family="cmbx" font-size="10">5</tspan></text> 
</g> 
 </g> 
 </g> 
 </g> 
 <path d=" M  170.71646 142.26372  " style="fill:none"/> 
 <g> 
 <g> 
 <g transform="matrix(1.0,0.0,0.0,1.0,167.84148,139.0415)"> 
 <g fill="rgb(0.0%,0.0%,0.0%)"> 
 <text style="stroke:none" transform="scale(1,-1) translate(2.87498,0)" text-anchor="middle"  font-size="10"> 
<tspan font-family="cmbx" font-size="10">6</tspan></text> 
</g> 
 </g> 
 </g> 
 </g> 
 <path d=" M  0.0 113.81097  " style="fill:none"/> 
 <g> 
 <g> 
 <g transform="matrix(1.0,0.0,0.0,1.0,-4.3472,110.38042)"> 
 <g fill="rgb(0.0%,0.0%,0.0%)"> 
 <text style="stroke:none" transform="scale(1,-1) translate(4.3472,0)" text-anchor="middle"  font-size="10"> 
<tspan font-family="cmbx" font-size="10">A</tspan></text> 
</g> 
 </g> 
 </g> 
 </g> 
 <path d=" M  0.0 85.35823  " style="fill:none"/> 
 <g> 
 <g> 
 <g transform="matrix(1.0,0.0,0.0,1.0,-4.09026,81.92767)"> 
 <g fill="rgb(0.0%,0.0%,0.0%)"> 
 <text style="stroke:none" transform="scale(1,-1) translate(4.09026,0)" text-anchor="middle"  font-size="10"> 
<tspan font-family="cmbx" font-size="10">B</tspan></text> 
</g> 
 </g> 
 </g> 
 </g> 
 <path d=" M  0.0 56.90549  " style="fill:none"/> 
 <g> 
 <g> 
 <g transform="matrix(1.0,0.0,0.0,1.0,-4.15276,53.47493)"> 
 <g fill="rgb(0.0%,0.0%,0.0%)"> 
 <text style="stroke:none" transform="scale(1,-1) translate(4.15276,0)" text-anchor="middle"  font-size="10"> 
<tspan font-family="cmbx" font-size="10">C</tspan></text> 
</g> 
 </g> 
 </g> 
 </g> 
 <path d=" M  0.0 28.45274  " style="fill:none"/> 
 <g> 
 <g> 
 <g transform="matrix(1.0,0.0,0.0,1.0,-4.4097,25.02219)"> 
 <g fill="rgb(0.0%,0.0%,0.0%)"> 
 <text style="stroke:none" transform="scale(1,-1) translate(4.4097,0)" text-anchor="middle"  font-size="10"> 
<tspan font-family="cmbx" font-size="10">D</tspan></text> 
</g> 
 </g> 
 </g> 
 </g> 
 <path d=" M  28.45274 28.45274  " style="fill:none"/> 
 <g> 
 <g> 
 <g transform="matrix(1.0,0.0,0.0,1.0,25.21942,25.23053)"> 
 <g fill="rgb(0.0%,0.0%,0.0%)"> 
 <text style="stroke:none" transform="scale(1,-1) translate(3.23332,0)" text-anchor="middle"  font-size="10"> 
<tspan font-family="cmti" font-size="10">1</tspan></text> 
</g> 
 </g> 
 </g> 
 </g> 
 <path d=" M  56.90549 28.45274  " style="fill:none"/> 
 <g> 
 <g> 
 <g transform="matrix(1.0,0.0,0.0,1.0,53.67216,25.23053)"> 
 <g fill="rgb(0.0%,0.0%,0.0%)"> 
 <text style="stroke:none" transform="scale(1,-1) translate(3.23332,0)" text-anchor="middle"  font-size="10"> 
<tspan font-family="cmti" font-size="10">1</tspan></text> 
</g> 
 </g> 
 </g> 
 </g> 
 <path d=" M  85.35823 28.45274  " style="fill:none"/> 
 <g> 
 <g> 
 <g transform="matrix(1.0,0.0,0.0,1.0,82.12491,25.23053)"> 
 <g fill="rgb(0.0%,0.0%,0.0%)"> 
 <text style="stroke:none" transform="scale(1,-1) translate(3.23332,0)" text-anchor="middle"  font-size="10"> 
<tspan font-family="cmti" font-size="10">1</tspan></text> 
</g> 
 </g> 
 </g> 
 </g> 
 <path d=" M  113.81097 28.45274  " style="fill:none"/> 
 <g> 
 <g> 
 <g transform="matrix(1.0,0.0,0.0,1.0,110.57765,25.23053)"> 
 <g fill="rgb(0.0%,0.0%,0.0%)"> 
 <text style="stroke:none" transform="scale(1,-1) translate(3.23332,0)" text-anchor="middle"  font-size="10"> 
<tspan font-family="cmti" font-size="10">1</tspan></text> 
</g> 
 </g> 
 </g> 
 </g> 
 <path d=" M  142.26372 28.45274  " style="fill:none"/> 
 <g> 
 <g> 
 <g transform="matrix(1.0,0.0,0.0,1.0,139.0304,25.23053)"> 
 <g fill="rgb(0.0%,0.0%,0.0%)"> 
 <text style="stroke:none" transform="scale(1,-1) translate(3.23332,0)" text-anchor="middle"  font-size="10"> 
<tspan font-family="cmti" font-size="10">1</tspan></text> 
</g> 
 </g> 
 </g> 
 </g> 
 <path d=" M  170.71646 28.45274  " style="fill:none"/> 
 <g> 
 <g> 
 <g transform="matrix(1.0,0.0,0.0,1.0,167.48314,25.23053)"> 
 <g fill="rgb(0.0%,0.0%,0.0%)"> 
 <text style="stroke:none" transform="scale(1,-1) translate(3.23332,0)" text-anchor="middle"  font-size="10"> 
<tspan font-family="cmti" font-size="10">1</tspan></text> 
</g> 
 </g> 
 </g> 
 </g> 
 <path d=" M  170.71646 56.90549  " style="fill:none"/> 
 <g> 
 <g> 
 <g transform="matrix(1.0,0.0,0.0,1.0,167.48314,53.68327)"> 
 <g fill="rgb(0.0%,0.0%,0.0%)"> 
 <text style="stroke:none" transform="scale(1,-1) translate(3.23332,0)" text-anchor="middle"  font-size="10"> 
<tspan font-family="cmti" font-size="10">1</tspan></text> 
</g> 
 </g> 
 </g> 
 </g> 
 <path d=" M  170.71646 85.35823  " style="fill:none"/> 
 <g> 
 <g> 
 <g transform="matrix(1.0,0.0,0.0,1.0,167.48314,82.13602)"> 
 <g fill="rgb(0.0%,0.0%,0.0%)"> 
 <text style="stroke:none" transform="scale(1,-1) translate(3.23332,0)" text-anchor="middle"  font-size="10"> 
<tspan font-family="cmti" font-size="10">1</tspan></text> 
</g> 
 </g> 
 </g> 
 </g> 
 <path d=" M  170.71646 113.81097  " style="fill:none"/> 
 <g> 
 <g> 
 <g transform="matrix(1.0,0.0,0.0,1.0,167.48314,110.58876)"> 
 <g fill="rgb(0.0%,0.0%,0.0%)"> 
 <text style="stroke:none" transform="scale(1,-1) translate(3.23332,0)" text-anchor="middle"  font-size="10"> 
<tspan font-family="cmti" font-size="10">1</tspan></text> 
</g> 
 </g> 
 </g> 
 </g> 
 <path d=" M  28.45274 56.90549  " style="fill:none"/> 
 <g> 
 <g> 
 <g transform="matrix(1.0,0.0,0.0,1.0,25.21942,53.68327)"> 
 <g fill="rgb(0.0%,0.0%,0.0%)"> 
 <text style="stroke:none" transform="scale(1,-1) translate(3.23332,0)" text-anchor="middle"  font-size="10"> 
<tspan font-family="cmti" font-size="10">2</tspan></text> 
</g> 
 </g> 
 </g> 
 </g> 
 <path d=" M  56.90549 56.90549  " style="fill:none"/> 
 <g> 
 <g> 
 <g transform="matrix(1.0,0.0,0.0,1.0,53.67216,53.68327)"> 
 <g fill="rgb(0.0%,0.0%,0.0%)"> 
 <text style="stroke:none" transform="scale(1,-1) translate(3.23332,0)" text-anchor="middle"  font-size="10"> 
<tspan font-family="cmti" font-size="10">2</tspan></text> 
</g> 
 </g> 
 </g> 
 </g> 
 <path d=" M  85.35823 56.90549  " style="fill:none"/> 
 <g> 
 <g> 
 <g transform="matrix(1.0,0.0,0.0,1.0,82.12491,53.68327)"> 
 <g fill="rgb(0.0%,0.0%,0.0%)"> 
 <text style="stroke:none" transform="scale(1,-1) translate(3.23332,0)" text-anchor="middle"  font-size="10"> 
<tspan font-family="cmti" font-size="10">2</tspan></text> 
</g> 
 </g> 
 </g> 
 </g> 
 <path d=" M  113.81097 56.90549  " style="fill:none"/> 
 <g> 
 <g> 
 <g transform="matrix(1.0,0.0,0.0,1.0,110.57765,53.68327)"> 
 <g fill="rgb(0.0%,0.0%,0.0%)"> 
 <text style="stroke:none" transform="scale(1,-1) translate(3.23332,0)" text-anchor="middle"  font-size="10"> 
<tspan font-family="cmti" font-size="10">2</tspan></text> 
</g> 
 </g> 
 </g> 
 </g> 
 <path d=" M  142.26372 56.90549  " style="fill:none"/> 
 <g> 
 <g> 
 <g transform="matrix(1.0,0.0,0.0,1.0,139.0304,53.68327)"> 
 <g fill="rgb(0.0%,0.0%,0.0%)"> 
 <text style="stroke:none" transform="scale(1,-1) translate(3.23332,0)" text-anchor="middle"  font-size="10"> 
<tspan font-family="cmti" font-size="10">2</tspan></text> 
</g> 
 </g> 
 </g> 
 </g> 
 <path d=" M  142.26372 85.35823  " style="fill:none"/> 
 <g> 
 <g> 
 <g transform="matrix(1.0,0.0,0.0,1.0,139.0304,82.13602)"> 
 <g fill="rgb(0.0%,0.0%,0.0%)"> 
 <text style="stroke:none" transform="scale(1,-1) translate(3.23332,0)" text-anchor="middle"  font-size="10"> 
<tspan font-family="cmti" font-size="10">2</tspan></text> 
</g> 
 </g> 
 </g> 
 </g> 
 <path d=" M  142.26372 113.81097  " style="fill:none"/> 
 <g> 
 <g> 
 <g transform="matrix(1.0,0.0,0.0,1.0,139.0304,110.58876)"> 
 <g fill="rgb(0.0%,0.0%,0.0%)"> 
 <text style="stroke:none" transform="scale(1,-1) translate(3.23332,0)" text-anchor="middle"  font-size="10"> 
<tspan font-family="cmti" font-size="10">2</tspan></text> 
</g> 
 </g> 
 </g> 
 </g> 
 <path d=" M  28.45274 85.35823  " style="fill:none"/> 
 <g> 
 <g> 
 <g transform="matrix(1.0,0.0,0.0,1.0,25.21942,82.13602)"> 
 <g fill="rgb(0.0%,0.0%,0.0%)"> 
 <text style="stroke:none" transform="scale(1,-1) translate(3.23332,0)" text-anchor="middle"  font-size="10"> 
<tspan font-family="cmti" font-size="10">3</tspan></text> 
</g> 
 </g> 
 </g> 
 </g> 
 <path d=" M  56.90549 85.35823  " style="fill:none"/> 
 <g> 
 <g> 
 <g transform="matrix(1.0,0.0,0.0,1.0,53.67216,82.13602)"> 
 <g fill="rgb(0.0%,0.0%,0.0%)"> 
 <text style="stroke:none" transform="scale(1,-1) translate(3.23332,0)" text-anchor="middle"  font-size="10"> 
<tspan font-family="cmti" font-size="10">3</tspan></text> 
</g> 
 </g> 
 </g> 
 </g> 
 <path d=" M  85.35823 85.35823  " style="fill:none"/> 
 <g> 
 <g> 
 <g transform="matrix(1.0,0.0,0.0,1.0,82.12491,82.13602)"> 
 <g fill="rgb(0.0%,0.0%,0.0%)"> 
 <text style="stroke:none" transform="scale(1,-1) translate(3.23332,0)" text-anchor="middle"  font-size="10"> 
<tspan font-family="cmti" font-size="10">3</tspan></text> 
</g> 
 </g> 
 </g> 
 </g> 
 <path d=" M  113.81097 85.35823  " style="fill:none"/> 
 <g> 
 <g> 
 <g transform="matrix(1.0,0.0,0.0,1.0,110.57765,82.13602)"> 
 <g fill="rgb(0.0%,0.0%,0.0%)"> 
 <text style="stroke:none" transform="scale(1,-1) translate(3.23332,0)" text-anchor="middle"  font-size="10"> 
<tspan font-family="cmti" font-size="10">3</tspan></text> 
</g> 
 </g> 
 </g> 
 </g> 
 <path d=" M  113.81097 113.81097  " style="fill:none"/> 
 <g> 
 <g> 
 <g transform="matrix(1.0,0.0,0.0,1.0,110.57765,110.58876)"> 
 <g fill="rgb(0.0%,0.0%,0.0%)"> 
 <text style="stroke:none" transform="scale(1,-1) translate(3.23332,0)" text-anchor="middle"  font-size="10"> 
<tspan font-family="cmti" font-size="10">3</tspan></text> 
</g> 
 </g> 
 </g> 
 </g> 
 <path d=" M  28.45274 113.81097  " style="fill:none"/> 
 <g> 
 <g> 
 <g transform="matrix(1.0,0.0,0.0,1.0,25.21942,111.56097)"> 
 <g fill="rgb(0.0%,0.0%,0.0%)"> 
 <text style="stroke:none" transform="scale(1,-1) translate(3.23332,0)" text-anchor="middle"  font-size="10"> 
<tspan font-family="cmti" font-size="10">4</tspan></text> 
</g> 
 </g> 
 </g> 
 </g> 
 <path d=" M  56.90549 113.81097  " style="fill:none"/> 
 <g> 
 <g> 
 <g transform="matrix(1.0,0.0,0.0,1.0,53.67216,111.56097)"> 
 <g fill="rgb(0.0%,0.0%,0.0%)"> 
 <text style="stroke:none" transform="scale(1,-1) translate(3.23332,0)" text-anchor="middle"  font-size="10"> 
<tspan font-family="cmti" font-size="10">4</tspan></text> 
</g> 
 </g> 
 </g> 
 </g> 
 <path d=" M  85.35823 113.81097  " style="fill:none"/> 
 <g> 
 <g> 
 <g transform="matrix(1.0,0.0,0.0,1.0,82.12491,111.56097)"> 
 <g fill="rgb(0.0%,0.0%,0.0%)"> 
 <text style="stroke:none" transform="scale(1,-1) translate(3.23332,0)" text-anchor="middle"  font-size="10"> 
<tspan font-family="cmti" font-size="10">4</tspan></text> 
</g> 
 </g> 
 </g> 
 </g> 
 <path d=" M  28.45274 113.81097 M  39.83366 113.81097 C  39.83366 120.12729 34.76906 125.1919 28.45274 125.1919 C  22.13643 125.1919 17.07182 120.12729 17.07182 113.81097 C  17.07182 107.49466 22.13643 102.43005 28.45274 102.43005 C  34.76906 102.43005 39.83366 107.49466 39.83366 113.81097 Z M  28.45274 113.81097  " style="fill:none"/> 
 <path d=" M  170.71646 28.45274 M  182.09738 28.45274 C  182.09738 34.76906 177.03278 39.83366 170.71646 39.83366 C  164.40015 39.83366 159.33554 34.76906 159.33554 28.45274 C  159.33554 22.13643 164.40015 17.07182 170.71646 17.07182 C  177.03278 17.07182 182.09738 22.13643 182.09738 28.45274 Z M  170.71646 28.45274  " style="fill:none"/> 
 </g> 
 </g> 
 </g> 
 </g> 
 </g> 
                                             </g> 
</svg> 
